<svg xmlns="http://www.w3.org/2000/svg" xmlns:xlink="http://www.w3.org/1999/xlink" width="700" zoomAndPan="magnify" viewBox="0 0 525 374.999991" height="500" preserveAspectRatio="xMidYMid meet" version="1.0"><defs><clipPath id="7c1bf759a6"><path d="M 63.882812 3.023438 L 461.382812 3.023438 L 461.382812 363 L 63.882812 363 Z M 63.882812 3.023438 " clip-rule="nonzero"/></clipPath></defs><rect x="-52.5" width="630" fill="#ffffff" y="-37.499999" height="449.999989" fill-opacity="1"/><rect x="-52.5" width="630" fill="#000000" y="-37.499999" height="449.999989" fill-opacity="1"/><g clip-path="url(#7c1bf759a6)"><path fill="#1fc604" d="M 357.078125 40.992188 L 271.957031 40.992188 L 271.957031 12.617188 C 271.957031 11.996094 271.894531 11.382812 271.773438 10.773438 C 271.652344 10.164062 271.472656 9.574219 271.234375 9 C 270.996094 8.425781 270.707031 7.878906 270.363281 7.363281 C 270.015625 6.847656 269.625 6.371094 269.183594 5.929688 C 268.746094 5.492188 268.269531 5.097656 267.753906 4.753906 C 267.234375 4.410156 266.691406 4.117188 266.117188 3.878906 C 265.542969 3.644531 264.953125 3.464844 264.34375 3.34375 C 263.734375 3.222656 263.117188 3.160156 262.496094 3.160156 C 261.875 3.160156 261.261719 3.222656 260.652344 3.34375 C 260.042969 3.464844 259.453125 3.644531 258.878906 3.878906 C 258.304688 4.117188 257.757812 4.410156 257.242188 4.753906 C 256.726562 5.097656 256.25 5.492188 255.808594 5.929688 C 255.371094 6.371094 254.980469 6.847656 254.632812 7.363281 C 254.289062 7.878906 253.996094 8.425781 253.761719 9 C 253.523438 9.574219 253.34375 10.164062 253.222656 10.773438 C 253.101562 11.382812 253.039062 11.996094 253.039062 12.617188 L 253.039062 40.992188 L 167.917969 40.992188 C 166.371094 40.992188 164.824219 41.070312 163.285156 41.222656 C 161.746094 41.375 160.214844 41.605469 158.695312 41.90625 C 157.179688 42.210938 155.679688 42.585938 154.195312 43.039062 C 152.714844 43.488281 151.257812 44.011719 149.828125 44.601562 C 148.398438 45.195312 147 45.859375 145.636719 46.589844 C 144.269531 47.320312 142.945312 48.113281 141.65625 48.976562 C 140.371094 49.835938 139.128906 50.757812 137.929688 51.738281 C 136.734375 52.722656 135.589844 53.761719 134.492188 54.855469 C 133.398438 55.949219 132.359375 57.097656 131.378906 58.292969 C 130.394531 59.488281 129.472656 60.730469 128.613281 62.019531 C 127.753906 63.304688 126.957031 64.632812 126.226562 65.996094 C 125.496094 67.363281 124.835938 68.761719 124.242188 70.191406 C 123.648438 71.621094 123.125 73.078125 122.675781 74.558594 C 122.226562 76.039062 121.847656 77.539062 121.546875 79.058594 C 121.242188 80.578125 121.015625 82.105469 120.863281 83.648438 C 120.707031 85.1875 120.632812 86.734375 120.628906 88.28125 L 120.628906 258.523438 C 120.632812 260.070312 120.707031 261.617188 120.863281 263.15625 C 121.015625 264.699219 121.242188 266.226562 121.546875 267.746094 C 121.847656 269.265625 122.226562 270.765625 122.675781 272.246094 C 123.125 273.726562 123.648438 275.183594 124.242188 276.613281 C 124.835938 278.042969 125.496094 279.441406 126.226562 280.804688 C 126.957031 282.171875 127.753906 283.496094 128.613281 284.785156 C 129.472656 286.074219 130.394531 287.3125 131.378906 288.511719 C 132.359375 289.707031 133.398438 290.855469 134.492188 291.949219 C 135.589844 293.042969 136.734375 294.082031 137.929688 295.066406 C 139.128906 296.046875 140.371094 296.96875 141.65625 297.828125 C 142.945312 298.691406 144.269531 299.484375 145.636719 300.214844 C 147 300.945312 148.398438 301.609375 149.828125 302.199219 C 151.257812 302.792969 152.714844 303.316406 154.195312 303.765625 C 155.679688 304.214844 157.179688 304.59375 158.695312 304.894531 C 160.214844 305.199219 161.746094 305.425781 163.285156 305.582031 C 164.824219 305.734375 166.371094 305.8125 167.917969 305.8125 L 219.605469 305.8125 L 254.628906 358.347656 C 254.84375 358.671875 255.078125 358.976562 255.332031 359.273438 C 255.585938 359.566406 255.855469 359.84375 256.140625 360.105469 C 256.429688 360.363281 256.730469 360.605469 257.046875 360.828125 C 257.363281 361.054688 257.695312 361.257812 258.035156 361.441406 C 258.378906 361.621094 258.730469 361.785156 259.089844 361.921875 C 259.453125 362.0625 259.820312 362.179688 260.199219 362.273438 C 260.574219 362.367188 260.953125 362.441406 261.339844 362.488281 C 261.722656 362.535156 262.109375 362.558594 262.496094 362.558594 C 262.886719 362.558594 263.273438 362.535156 263.65625 362.488281 C 264.042969 362.441406 264.421875 362.367188 264.796875 362.273438 C 265.175781 362.179688 265.542969 362.0625 265.90625 361.921875 C 266.265625 361.785156 266.617188 361.621094 266.960938 361.441406 C 267.300781 361.257812 267.632812 361.054688 267.949219 360.828125 C 268.265625 360.605469 268.566406 360.363281 268.855469 360.105469 C 269.140625 359.84375 269.410156 359.566406 269.664062 359.273438 C 269.917969 358.976562 270.152344 358.671875 270.367188 358.347656 L 305.390625 305.8125 L 357.078125 305.8125 C 358.625 305.8125 360.167969 305.734375 361.710938 305.582031 C 363.25 305.425781 364.78125 305.199219 366.300781 304.894531 C 367.816406 304.59375 369.316406 304.214844 370.800781 303.765625 C 372.28125 303.316406 373.734375 302.792969 375.167969 302.199219 C 376.597656 301.609375 377.996094 300.945312 379.359375 300.214844 C 380.726562 299.484375 382.050781 298.691406 383.339844 297.828125 C 384.625 296.96875 385.867188 296.046875 387.066406 295.066406 C 388.261719 294.082031 389.40625 293.042969 390.503906 291.949219 C 391.597656 290.855469 392.636719 289.707031 393.617188 288.511719 C 394.601562 287.3125 395.523438 286.074219 396.382812 284.785156 C 397.242188 283.496094 398.039062 282.171875 398.769531 280.804688 C 399.5 279.441406 400.160156 278.042969 400.753906 276.613281 C 401.347656 275.183594 401.871094 273.726562 402.320312 272.246094 C 402.769531 270.765625 403.148438 269.265625 403.449219 267.746094 C 403.753906 266.226562 403.980469 264.699219 404.132812 263.15625 C 404.285156 261.617188 404.363281 260.070312 404.367188 258.523438 L 404.367188 88.28125 C 404.363281 86.734375 404.285156 85.1875 404.132812 83.648438 C 403.980469 82.105469 403.753906 80.578125 403.449219 79.058594 C 403.148438 77.539062 402.769531 76.039062 402.320312 74.558594 C 401.871094 73.078125 401.347656 71.621094 400.753906 70.191406 C 400.160156 68.761719 399.5 67.363281 398.769531 65.996094 C 398.039062 64.632812 397.242188 63.304688 396.382812 62.019531 C 395.523438 60.730469 394.601562 59.488281 393.617188 58.292969 C 392.636719 57.097656 391.597656 55.949219 390.503906 54.855469 C 389.40625 53.761719 388.261719 52.722656 387.066406 51.738281 C 385.867188 50.757812 384.625 49.835938 383.339844 48.976562 C 382.050781 48.113281 380.726562 47.320312 379.359375 46.589844 C 377.996094 45.859375 376.597656 45.195312 375.167969 44.601562 C 373.734375 44.011719 372.28125 43.488281 370.800781 43.039062 C 369.316406 42.585938 367.816406 42.210938 366.300781 41.90625 C 364.78125 41.605469 363.25 41.375 361.710938 41.222656 C 360.167969 41.070312 358.625 40.992188 357.078125 40.992188 Z M 385.449219 258.523438 C 385.449219 259.453125 385.402344 260.378906 385.3125 261.304688 C 385.21875 262.226562 385.082031 263.144531 384.898438 264.054688 C 384.71875 264.96875 384.492188 265.867188 384.222656 266.757812 C 383.949219 267.644531 383.636719 268.519531 383.28125 269.375 C 382.925781 270.234375 382.527344 271.074219 382.089844 271.890625 C 381.652344 272.710938 381.175781 273.507812 380.660156 274.277344 C 380.140625 275.050781 379.589844 275.796875 379 276.515625 C 378.410156 277.234375 377.789062 277.921875 377.128906 278.578125 C 376.472656 279.234375 375.785156 279.855469 375.066406 280.445312 C 374.351562 281.035156 373.605469 281.589844 372.832031 282.105469 C 372.058594 282.621094 371.265625 283.097656 370.445312 283.539062 C 369.625 283.976562 368.789062 284.371094 367.929688 284.726562 C 367.070312 285.085938 366.199219 285.398438 365.308594 285.667969 C 364.421875 285.9375 363.519531 286.164062 362.609375 286.347656 C 361.699219 286.527344 360.78125 286.664062 359.855469 286.757812 C 358.933594 286.847656 358.003906 286.894531 357.078125 286.898438 L 300.328125 286.898438 C 299.550781 286.898438 298.785156 286.992188 298.03125 287.183594 C 297.273438 287.375 296.554688 287.652344 295.867188 288.019531 C 295.183594 288.386719 294.550781 288.832031 293.972656 289.355469 C 293.398438 289.875 292.894531 290.460938 292.460938 291.109375 L 262.496094 336.050781 L 232.535156 291.109375 C 232.101562 290.460938 231.597656 289.875 231.019531 289.351562 C 230.445312 288.832031 229.8125 288.386719 229.128906 288.019531 C 228.441406 287.652344 227.71875 287.371094 226.964844 287.183594 C 226.210938 286.992188 225.445312 286.898438 224.667969 286.898438 L 167.917969 286.898438 C 166.988281 286.894531 166.0625 286.847656 165.140625 286.757812 C 164.214844 286.664062 163.296875 286.527344 162.386719 286.347656 C 161.476562 286.164062 160.574219 285.9375 159.6875 285.667969 C 158.796875 285.398438 157.925781 285.085938 157.066406 284.726562 C 156.207031 284.371094 155.367188 283.976562 154.550781 283.535156 C 153.730469 283.097656 152.933594 282.621094 152.164062 282.105469 C 151.390625 281.589844 150.644531 281.035156 149.925781 280.445312 C 149.210938 279.855469 148.523438 279.234375 147.863281 278.578125 C 147.207031 277.921875 146.585938 277.234375 145.996094 276.515625 C 145.40625 275.796875 144.851562 275.050781 144.335938 274.277344 C 143.820312 273.507812 143.34375 272.710938 142.90625 271.890625 C 142.464844 271.074219 142.070312 270.234375 141.714844 269.375 C 141.359375 268.519531 141.042969 267.644531 140.773438 266.753906 C 140.503906 265.867188 140.277344 264.96875 140.097656 264.054688 C 139.914062 263.144531 139.777344 262.226562 139.683594 261.304688 C 139.59375 260.378906 139.546875 259.453125 139.546875 258.523438 L 139.546875 230.148438 L 385.449219 230.148438 Z M 385.449219 211.234375 L 139.546875 211.234375 L 139.546875 88.28125 C 139.546875 87.351562 139.59375 86.425781 139.683594 85.5 C 139.777344 84.578125 139.914062 83.660156 140.097656 82.75 C 140.277344 81.835938 140.503906 80.9375 140.773438 80.046875 C 141.042969 79.160156 141.359375 78.285156 141.714844 77.429688 C 142.070312 76.570312 142.464844 75.730469 142.90625 74.914062 C 143.34375 74.09375 143.820312 73.296875 144.335938 72.523438 C 144.851562 71.753906 145.40625 71.007812 145.996094 70.289062 C 146.585938 69.570312 147.207031 68.882812 147.863281 68.226562 C 148.523438 67.570312 149.210938 66.945312 149.925781 66.359375 C 150.644531 65.769531 151.390625 65.214844 152.164062 64.699219 C 152.933594 64.183594 153.730469 63.707031 154.550781 63.265625 C 155.367188 62.828125 156.207031 62.433594 157.066406 62.074219 C 157.925781 61.71875 158.796875 61.40625 159.6875 61.136719 C 160.574219 60.867188 161.476562 60.640625 162.386719 60.457031 C 163.296875 60.277344 164.214844 60.140625 165.140625 60.046875 C 166.0625 59.957031 166.988281 59.910156 167.917969 59.90625 L 357.078125 59.90625 C 358.003906 59.910156 358.933594 59.957031 359.855469 60.046875 C 360.78125 60.140625 361.699219 60.277344 362.609375 60.457031 C 363.519531 60.640625 364.421875 60.867188 365.308594 61.136719 C 366.199219 61.40625 367.070312 61.71875 367.929688 62.074219 C 368.789062 62.433594 369.625 62.828125 370.445312 63.265625 C 371.265625 63.707031 372.058594 64.183594 372.832031 64.699219 C 373.605469 65.214844 374.351562 65.769531 375.066406 66.359375 C 375.785156 66.945312 376.472656 67.570312 377.128906 68.226562 C 377.789062 68.882812 378.410156 69.570312 379 70.289062 C 379.589844 71.007812 380.140625 71.753906 380.660156 72.523438 C 381.175781 73.296875 381.652344 74.09375 382.089844 74.914062 C 382.527344 75.730469 382.925781 76.570312 383.28125 77.429688 C 383.636719 78.285156 383.949219 79.160156 384.222656 80.046875 C 384.492188 80.9375 384.71875 81.835938 384.898438 82.75 C 385.082031 83.660156 385.21875 84.578125 385.3125 85.5 C 385.402344 86.425781 385.449219 87.351562 385.449219 88.28125 Z M 224.667969 145.027344 C 224.667969 145.648438 224.636719 146.265625 224.574219 146.882812 C 224.515625 147.5 224.421875 148.109375 224.304688 148.71875 C 224.183594 149.328125 224.03125 149.925781 223.851562 150.519531 C 223.671875 151.113281 223.464844 151.695312 223.226562 152.265625 C 222.988281 152.839844 222.726562 153.398438 222.433594 153.945312 C 222.140625 154.492188 221.824219 155.023438 221.476562 155.539062 C 221.132812 156.050781 220.765625 156.550781 220.371094 157.027344 C 219.980469 157.507812 219.5625 157.964844 219.125 158.402344 C 218.6875 158.84375 218.230469 159.257812 217.75 159.652344 C 217.273438 160.042969 216.773438 160.414062 216.257812 160.757812 C 215.746094 161.101562 215.214844 161.417969 214.667969 161.710938 C 214.121094 162.003906 213.5625 162.265625 212.988281 162.503906 C 212.417969 162.742188 211.835938 162.949219 211.242188 163.128906 C 210.648438 163.308594 210.046875 163.460938 209.441406 163.582031 C 208.832031 163.703125 208.222656 163.792969 207.605469 163.851562 C 206.988281 163.914062 206.371094 163.945312 205.75 163.945312 C 205.132812 163.945312 204.511719 163.914062 203.894531 163.851562 C 203.28125 163.792969 202.667969 163.703125 202.058594 163.582031 C 201.453125 163.460938 200.851562 163.308594 200.257812 163.128906 C 199.667969 162.949219 199.085938 162.742188 198.511719 162.503906 C 197.9375 162.265625 197.378906 162.003906 196.832031 161.710938 C 196.289062 161.417969 195.757812 161.101562 195.242188 160.757812 C 194.726562 160.414062 194.230469 160.042969 193.75 159.652344 C 193.273438 159.257812 192.8125 158.84375 192.375 158.402344 C 191.9375 157.964844 191.523438 157.507812 191.128906 157.027344 C 190.734375 156.550781 190.367188 156.050781 190.023438 155.539062 C 189.679688 155.023438 189.359375 154.492188 189.066406 153.945312 C 188.777344 153.398438 188.511719 152.839844 188.273438 152.265625 C 188.039062 151.695312 187.828125 151.113281 187.648438 150.519531 C 187.46875 149.925781 187.320312 149.328125 187.199219 148.71875 C 187.078125 148.109375 186.988281 147.5 186.925781 146.882812 C 186.863281 146.265625 186.835938 145.648438 186.835938 145.027344 C 186.835938 144.410156 186.863281 143.789062 186.925781 143.175781 C 186.988281 142.558594 187.078125 141.945312 187.199219 141.339844 C 187.320312 140.730469 187.46875 140.128906 187.648438 139.539062 C 187.828125 138.945312 188.039062 138.363281 188.273438 137.789062 C 188.511719 137.21875 188.777344 136.65625 189.066406 136.113281 C 189.359375 135.566406 189.679688 135.035156 190.023438 134.519531 C 190.367188 134.003906 190.734375 133.507812 191.128906 133.027344 C 191.523438 132.550781 191.9375 132.089844 192.375 131.652344 C 192.8125 131.214844 193.273438 130.800781 193.75 130.40625 C 194.230469 130.011719 194.726562 129.644531 195.242188 129.300781 C 195.757812 128.957031 196.289062 128.636719 196.832031 128.347656 C 197.378906 128.054688 197.9375 127.789062 198.511719 127.550781 C 199.085938 127.316406 199.667969 127.105469 200.257812 126.925781 C 200.851562 126.746094 201.453125 126.597656 202.058594 126.476562 C 202.667969 126.355469 203.28125 126.265625 203.894531 126.203125 C 204.511719 126.144531 205.132812 126.113281 205.75 126.113281 C 206.371094 126.113281 206.988281 126.144531 207.605469 126.203125 C 208.222656 126.265625 208.832031 126.355469 209.441406 126.476562 C 210.046875 126.597656 210.648438 126.746094 211.242188 126.925781 C 211.835938 127.105469 212.417969 127.316406 212.988281 127.550781 C 213.5625 127.789062 214.121094 128.054688 214.667969 128.347656 C 215.214844 128.636719 215.746094 128.957031 216.257812 129.300781 C 216.773438 129.644531 217.273438 130.011719 217.75 130.40625 C 218.230469 130.800781 218.6875 131.214844 219.125 131.652344 C 219.5625 132.089844 219.980469 132.550781 220.371094 133.027344 C 220.765625 133.507812 221.132812 134.003906 221.476562 134.519531 C 221.824219 135.035156 222.140625 135.566406 222.433594 136.113281 C 222.726562 136.65625 222.988281 137.21875 223.226562 137.789062 C 223.464844 138.363281 223.671875 138.945312 223.851562 139.539062 C 224.03125 140.128906 224.183594 140.730469 224.304688 141.339844 C 224.421875 141.945312 224.515625 142.558594 224.574219 143.175781 C 224.636719 143.789062 224.667969 144.410156 224.667969 145.027344 Z M 338.160156 145.027344 C 338.160156 145.648438 338.128906 146.265625 338.070312 146.882812 C 338.007812 147.5 337.917969 148.109375 337.796875 148.71875 C 337.675781 149.328125 337.527344 149.925781 337.347656 150.519531 C 337.167969 151.113281 336.957031 151.695312 336.722656 152.265625 C 336.484375 152.839844 336.21875 153.398438 335.925781 153.945312 C 335.636719 154.492188 335.316406 155.023438 334.972656 155.539062 C 334.628906 156.050781 334.261719 156.550781 333.867188 157.027344 C 333.472656 157.507812 333.058594 157.964844 332.621094 158.402344 C 332.183594 158.84375 331.722656 159.257812 331.246094 159.652344 C 330.765625 160.042969 330.269531 160.414062 329.753906 160.757812 C 329.238281 161.101562 328.707031 161.417969 328.160156 161.710938 C 327.617188 162.003906 327.054688 162.265625 326.484375 162.503906 C 325.910156 162.742188 325.328125 162.949219 324.734375 163.128906 C 324.144531 163.308594 323.542969 163.460938 322.933594 163.582031 C 322.328125 163.703125 321.714844 163.792969 321.097656 163.851562 C 320.484375 163.914062 319.863281 163.945312 319.246094 163.945312 C 318.625 163.945312 318.007812 163.914062 317.390625 163.851562 C 316.773438 163.792969 316.164062 163.703125 315.554688 163.582031 C 314.945312 163.460938 314.347656 163.308594 313.753906 163.128906 C 313.160156 162.949219 312.578125 162.742188 312.007812 162.503906 C 311.433594 162.265625 310.875 162.003906 310.328125 161.710938 C 309.78125 161.417969 309.25 161.101562 308.734375 160.757812 C 308.222656 160.414062 307.722656 160.042969 307.246094 159.652344 C 306.765625 159.257812 306.308594 158.84375 305.871094 158.402344 C 305.429688 157.964844 305.015625 157.507812 304.621094 157.027344 C 304.230469 156.550781 303.859375 156.050781 303.515625 155.539062 C 303.171875 155.023438 302.855469 154.492188 302.5625 153.945312 C 302.269531 153.398438 302.007812 152.839844 301.769531 152.265625 C 301.53125 151.695312 301.324219 151.113281 301.144531 150.519531 C 300.964844 149.925781 300.8125 149.328125 300.691406 148.71875 C 300.570312 148.109375 300.480469 147.5 300.421875 146.882812 C 300.359375 146.265625 300.328125 145.648438 300.328125 145.027344 C 300.328125 144.410156 300.359375 143.789062 300.421875 143.175781 C 300.480469 142.558594 300.570312 141.945312 300.691406 141.339844 C 300.8125 140.730469 300.964844 140.128906 301.144531 139.539062 C 301.324219 138.945312 301.53125 138.363281 301.769531 137.789062 C 302.007812 137.21875 302.269531 136.65625 302.5625 136.113281 C 302.855469 135.566406 303.171875 135.035156 303.515625 134.519531 C 303.859375 134.003906 304.230469 133.507812 304.621094 133.027344 C 305.015625 132.550781 305.429688 132.089844 305.871094 131.652344 C 306.308594 131.214844 306.765625 130.800781 307.246094 130.40625 C 307.722656 130.011719 308.222656 129.644531 308.734375 129.300781 C 309.25 128.957031 309.78125 128.636719 310.328125 128.347656 C 310.875 128.054688 311.433594 127.789062 312.007812 127.550781 C 312.578125 127.316406 313.160156 127.105469 313.753906 126.925781 C 314.347656 126.746094 314.945312 126.597656 315.554688 126.476562 C 316.164062 126.355469 316.773438 126.265625 317.390625 126.203125 C 318.007812 126.144531 318.625 126.113281 319.246094 126.113281 C 319.863281 126.113281 320.484375 126.144531 321.097656 126.203125 C 321.714844 126.265625 322.328125 126.355469 322.933594 126.476562 C 323.542969 126.597656 324.144531 126.746094 324.734375 126.925781 C 325.328125 127.105469 325.910156 127.316406 326.484375 127.550781 C 327.054688 127.789062 327.617188 128.054688 328.160156 128.347656 C 328.707031 128.636719 329.238281 128.957031 329.753906 129.300781 C 330.269531 129.644531 330.765625 130.011719 331.246094 130.40625 C 331.722656 130.800781 332.183594 131.214844 332.621094 131.652344 C 333.058594 132.089844 333.472656 132.550781 333.867188 133.027344 C 334.261719 133.507812 334.628906 134.003906 334.972656 134.519531 C 335.316406 135.035156 335.636719 135.566406 335.925781 136.113281 C 336.21875 136.65625 336.484375 137.21875 336.722656 137.789062 C 336.957031 138.363281 337.167969 138.945312 337.347656 139.539062 C 337.527344 140.128906 337.675781 140.730469 337.796875 141.339844 C 337.917969 141.945312 338.007812 142.558594 338.070312 143.175781 C 338.128906 143.789062 338.160156 144.410156 338.160156 145.027344 Z M 82.796875 107.195312 L 82.796875 182.859375 C 82.796875 183.480469 82.738281 184.097656 82.617188 184.707031 C 82.496094 185.3125 82.316406 185.90625 82.078125 186.480469 C 81.839844 187.054688 81.550781 187.597656 81.203125 188.113281 C 80.859375 188.628906 80.46875 189.109375 80.027344 189.546875 C 79.589844 189.988281 79.109375 190.378906 78.59375 190.722656 C 78.078125 191.070312 77.535156 191.359375 76.960938 191.597656 C 76.386719 191.835938 75.792969 192.015625 75.183594 192.136719 C 74.578125 192.257812 73.960938 192.316406 73.339844 192.316406 C 72.71875 192.316406 72.105469 192.257812 71.496094 192.136719 C 70.886719 192.015625 70.292969 191.835938 69.722656 191.597656 C 69.148438 191.359375 68.601562 191.070312 68.085938 190.722656 C 67.570312 190.378906 67.089844 189.988281 66.652344 189.546875 C 66.214844 189.109375 65.820312 188.628906 65.476562 188.113281 C 65.132812 187.597656 64.839844 187.054688 64.601562 186.480469 C 64.363281 185.90625 64.183594 185.3125 64.0625 184.707031 C 63.941406 184.097656 63.882812 183.480469 63.882812 182.859375 L 63.882812 107.195312 C 63.882812 106.574219 63.941406 105.960938 64.0625 105.351562 C 64.183594 104.742188 64.363281 104.152344 64.601562 103.578125 C 64.839844 103.003906 65.132812 102.457031 65.476562 101.941406 C 65.820312 101.425781 66.214844 100.949219 66.652344 100.507812 C 67.089844 100.070312 67.570312 99.679688 68.085938 99.332031 C 68.601562 98.988281 69.148438 98.695312 69.722656 98.460938 C 70.292969 98.222656 70.886719 98.042969 71.496094 97.921875 C 72.105469 97.800781 72.71875 97.738281 73.339844 97.738281 C 73.960938 97.738281 74.578125 97.800781 75.183594 97.921875 C 75.792969 98.042969 76.386719 98.222656 76.960938 98.460938 C 77.535156 98.695312 78.078125 98.988281 78.59375 99.332031 C 79.109375 99.679688 79.589844 100.070312 80.027344 100.507812 C 80.46875 100.949219 80.859375 101.425781 81.203125 101.941406 C 81.550781 102.457031 81.839844 103.003906 82.078125 103.578125 C 82.316406 104.152344 82.496094 104.742188 82.617188 105.351562 C 82.738281 105.960938 82.796875 106.574219 82.796875 107.195312 Z M 461.113281 107.195312 L 461.113281 182.859375 C 461.113281 183.480469 461.050781 184.097656 460.929688 184.707031 C 460.808594 185.3125 460.628906 185.90625 460.394531 186.480469 C 460.15625 187.054688 459.863281 187.597656 459.519531 188.113281 C 459.175781 188.628906 458.78125 189.109375 458.34375 189.546875 C 457.902344 189.988281 457.425781 190.378906 456.910156 190.722656 C 456.394531 191.070312 455.847656 191.359375 455.273438 191.597656 C 454.699219 191.835938 454.109375 192.015625 453.5 192.136719 C 452.890625 192.257812 452.277344 192.316406 451.65625 192.316406 C 451.035156 192.316406 450.417969 192.257812 449.808594 192.136719 C 449.199219 192.015625 448.609375 191.835938 448.035156 191.597656 C 447.460938 191.359375 446.917969 191.070312 446.402344 190.722656 C 445.882812 190.378906 445.40625 189.988281 444.96875 189.546875 C 444.527344 189.109375 444.136719 188.628906 443.792969 188.113281 C 443.445312 187.597656 443.15625 187.054688 442.917969 186.480469 C 442.679688 185.90625 442.5 185.3125 442.378906 184.707031 C 442.257812 184.097656 442.195312 183.480469 442.195312 182.859375 L 442.195312 107.195312 C 442.195312 106.574219 442.257812 105.960938 442.378906 105.351562 C 442.5 104.742188 442.679688 104.152344 442.917969 103.578125 C 443.15625 103.003906 443.445312 102.457031 443.792969 101.941406 C 444.136719 101.425781 444.527344 100.949219 444.96875 100.507812 C 445.40625 100.070312 445.882812 99.679688 446.402344 99.332031 C 446.917969 98.988281 447.460938 98.695312 448.035156 98.460938 C 448.609375 98.222656 449.199219 98.042969 449.808594 97.921875 C 450.417969 97.800781 451.035156 97.738281 451.65625 97.738281 C 452.277344 97.738281 452.890625 97.800781 453.5 97.921875 C 454.109375 98.042969 454.699219 98.222656 455.273438 98.460938 C 455.847656 98.695312 456.394531 98.988281 456.910156 99.332031 C 457.425781 99.679688 457.902344 100.070312 458.34375 100.507812 C 458.78125 100.949219 459.175781 101.425781 459.519531 101.941406 C 459.863281 102.457031 460.15625 103.003906 460.394531 103.578125 C 460.628906 104.152344 460.808594 104.742188 460.929688 105.351562 C 461.050781 105.960938 461.113281 106.574219 461.113281 107.195312 Z M 461.113281 107.195312 " fill-opacity="1" fill-rule="nonzero"/></g></svg>