<svg xmlns="http://www.w3.org/2000/svg" xmlns:xlink="http://www.w3.org/1999/xlink" width="1920" zoomAndPan="magnify" viewBox="0 0 1440 809.999993" height="1080" preserveAspectRatio="xMidYMid meet" version="1.0"><defs><clipPath id="a6c457c19d"><path d="M 36 0 L 38 0 L 38 476.964844 L 36 476.964844 Z M 36 0 " clip-rule="nonzero"/></clipPath><clipPath id="012a7ade81"><path d="M 72.421875 0 L 74.875 0 L 74.875 476.964844 L 72.421875 476.964844 Z M 72.421875 0 " clip-rule="nonzero"/></clipPath><clipPath id="749e2ec560"><path d="M 109.246094 0 L 111 0 L 111 476.964844 L 109.246094 476.964844 Z M 109.246094 0 " clip-rule="nonzero"/></clipPath><clipPath id="1a6e61ce22"><path d="M 146.070312 0 L 148 0 L 148 476.964844 L 146.070312 476.964844 Z M 146.070312 0 " clip-rule="nonzero"/></clipPath><clipPath id="390f1e55d0"><path d="M 182 0 L 184.121094 0 L 184.121094 476.964844 L 182 476.964844 Z M 182 0 " clip-rule="nonzero"/></clipPath><clipPath id="7d9533b12c"><path d="M 219 0 L 220.945312 0 L 220.945312 476.964844 L 219 476.964844 Z M 219 0 " clip-rule="nonzero"/></clipPath><clipPath id="12f678a6d1"><path d="M 256 0 L 257.769531 0 L 257.769531 476.964844 L 256 476.964844 Z M 256 0 " clip-rule="nonzero"/></clipPath><clipPath id="adfee0dea8"><path d="M 292.140625 0 L 294.597656 0 L 294.597656 476.964844 L 292.140625 476.964844 Z M 292.140625 0 " clip-rule="nonzero"/></clipPath><clipPath id="a9369fd55e"><path d="M 329 0 L 331 0 L 331 476.964844 L 329 476.964844 Z M 329 0 " clip-rule="nonzero"/></clipPath><clipPath id="6a59fd3315"><path d="M 366 0 L 368 0 L 368 476.964844 L 366 476.964844 Z M 366 0 " clip-rule="nonzero"/></clipPath><clipPath id="dcea410c54"><path d="M 402.613281 0 L 405 0 L 405 476.964844 L 402.613281 476.964844 Z M 402.613281 0 " clip-rule="nonzero"/></clipPath><clipPath id="b178937d1a"><path d="M 439.4375 0 L 441 0 L 441 476.964844 L 439.4375 476.964844 Z M 439.4375 0 " clip-rule="nonzero"/></clipPath><clipPath id="bc1caedb6e"><path d="M 0 439.4375 L 476.964844 439.4375 L 476.964844 441 L 0 441 Z M 0 439.4375 " clip-rule="nonzero"/></clipPath><clipPath id="3b0fa37f23"><path d="M 0 402.613281 L 476.964844 402.613281 L 476.964844 405 L 0 405 Z M 0 402.613281 " clip-rule="nonzero"/></clipPath><clipPath id="2db3774219"><path d="M 0 366 L 476.964844 366 L 476.964844 368 L 0 368 Z M 0 366 " clip-rule="nonzero"/></clipPath><clipPath id="f182957ecb"><path d="M 0 329 L 476.964844 329 L 476.964844 331 L 0 331 Z M 0 329 " clip-rule="nonzero"/></clipPath><clipPath id="98dc4ea2e1"><path d="M 0 292.140625 L 476.964844 292.140625 L 476.964844 294.597656 L 0 294.597656 Z M 0 292.140625 " clip-rule="nonzero"/></clipPath><clipPath id="66ec27a494"><path d="M 0 256 L 476.964844 256 L 476.964844 257.773438 L 0 257.773438 Z M 0 256 " clip-rule="nonzero"/></clipPath><clipPath id="b4f0689026"><path d="M 0 219 L 476.964844 219 L 476.964844 220.945312 L 0 220.945312 Z M 0 219 " clip-rule="nonzero"/></clipPath><clipPath id="406865f7a9"><path d="M 0 182 L 476.964844 182 L 476.964844 184.121094 L 0 184.121094 Z M 0 182 " clip-rule="nonzero"/></clipPath><clipPath id="661faa1401"><path d="M 0 146.070312 L 476.964844 146.070312 L 476.964844 148 L 0 148 Z M 0 146.070312 " clip-rule="nonzero"/></clipPath><clipPath id="dab70f423e"><path d="M 0 109.246094 L 476.964844 109.246094 L 476.964844 111 L 0 111 Z M 0 109.246094 " clip-rule="nonzero"/></clipPath><clipPath id="a3ff01cfc6"><path d="M 0 72.421875 L 476.964844 72.421875 L 476.964844 74.875 L 0 74.875 Z M 0 72.421875 " clip-rule="nonzero"/></clipPath><clipPath id="559376447d"><path d="M 0 36 L 476.964844 36 L 476.964844 38 L 0 38 Z M 0 36 " clip-rule="nonzero"/></clipPath><clipPath id="51e3b02ec6"><path d="M 475.421875 0 L 477.875 0 L 477.875 476.964844 L 475.421875 476.964844 Z M 475.421875 0 " clip-rule="nonzero"/></clipPath><clipPath id="fafce55494"><path d="M 512.246094 0 L 514 0 L 514 476.964844 L 512.246094 476.964844 Z M 512.246094 0 " clip-rule="nonzero"/></clipPath><clipPath id="59d98cbe8f"><path d="M 549.070312 0 L 551 0 L 551 476.964844 L 549.070312 476.964844 Z M 549.070312 0 " clip-rule="nonzero"/></clipPath><clipPath id="1b10df2a37"><path d="M 585.894531 0 L 588 0 L 588 476.964844 L 585.894531 476.964844 Z M 585.894531 0 " clip-rule="nonzero"/></clipPath><clipPath id="1de625802c"><path d="M 622 0 L 623.945312 0 L 623.945312 476.964844 L 622 476.964844 Z M 622 0 " clip-rule="nonzero"/></clipPath><clipPath id="d03bd305cc"><path d="M 659 0 L 660.769531 0 L 660.769531 476.964844 L 659 476.964844 Z M 659 0 " clip-rule="nonzero"/></clipPath><clipPath id="735e9ce3bd"><path d="M 695.140625 0 L 697.597656 0 L 697.597656 476.964844 L 695.140625 476.964844 Z M 695.140625 0 " clip-rule="nonzero"/></clipPath><clipPath id="b06cb08aa2"><path d="M 732 0 L 734.421875 0 L 734.421875 476.964844 L 732 476.964844 Z M 732 0 " clip-rule="nonzero"/></clipPath><clipPath id="9575770329"><path d="M 769 0 L 771 0 L 771 476.964844 L 769 476.964844 Z M 769 0 " clip-rule="nonzero"/></clipPath><clipPath id="032c688ec2"><path d="M 806 0 L 808 0 L 808 476.964844 L 806 476.964844 Z M 806 0 " clip-rule="nonzero"/></clipPath><clipPath id="3d9a5ec0e7"><path d="M 842.4375 0 L 844.894531 0 L 844.894531 476.964844 L 842.4375 476.964844 Z M 842.4375 0 " clip-rule="nonzero"/></clipPath><clipPath id="87f83a7729"><path d="M 879.261719 0 L 881 0 L 881 476.964844 L 879.261719 476.964844 Z M 879.261719 0 " clip-rule="nonzero"/></clipPath><clipPath id="c32ec476ad"><path d="M 472.867188 439.4375 L 916.789062 439.4375 L 916.789062 441 L 472.867188 441 Z M 472.867188 439.4375 " clip-rule="nonzero"/></clipPath><clipPath id="412b40682d"><path d="M 472.867188 402.613281 L 916.789062 402.613281 L 916.789062 405 L 472.867188 405 Z M 472.867188 402.613281 " clip-rule="nonzero"/></clipPath><clipPath id="a611a3e939"><path d="M 472.867188 366 L 916.789062 366 L 916.789062 368 L 472.867188 368 Z M 472.867188 366 " clip-rule="nonzero"/></clipPath><clipPath id="082bdfe041"><path d="M 472.867188 329 L 916.789062 329 L 916.789062 331 L 472.867188 331 Z M 472.867188 329 " clip-rule="nonzero"/></clipPath><clipPath id="961c924ce4"><path d="M 472.867188 292.140625 L 916.789062 292.140625 L 916.789062 294.597656 L 472.867188 294.597656 Z M 472.867188 292.140625 " clip-rule="nonzero"/></clipPath><clipPath id="6f1c4caf93"><path d="M 472.867188 256 L 916.789062 256 L 916.789062 257.773438 L 472.867188 257.773438 Z M 472.867188 256 " clip-rule="nonzero"/></clipPath><clipPath id="221b52c6b4"><path d="M 472.867188 219 L 916.789062 219 L 916.789062 220.945312 L 472.867188 220.945312 Z M 472.867188 219 " clip-rule="nonzero"/></clipPath><clipPath id="a1a9262006"><path d="M 472.867188 182 L 916.789062 182 L 916.789062 184.121094 L 472.867188 184.121094 Z M 472.867188 182 " clip-rule="nonzero"/></clipPath><clipPath id="bb33dabe7c"><path d="M 472.867188 146.070312 L 916.789062 146.070312 L 916.789062 148 L 472.867188 148 Z M 472.867188 146.070312 " clip-rule="nonzero"/></clipPath><clipPath id="31bb970f9a"><path d="M 472.867188 109.246094 L 916.789062 109.246094 L 916.789062 111 L 472.867188 111 Z M 472.867188 109.246094 " clip-rule="nonzero"/></clipPath><clipPath id="509367aab9"><path d="M 472.867188 72.421875 L 916.789062 72.421875 L 916.789062 74.875 L 472.867188 74.875 Z M 472.867188 72.421875 " clip-rule="nonzero"/></clipPath><clipPath id="a3bea1af97"><path d="M 472.867188 36 L 916.789062 36 L 916.789062 38 L 472.867188 38 Z M 472.867188 36 " clip-rule="nonzero"/></clipPath><clipPath id="7f05a2003a"><path d="M 1430.320312 439.4375 L 1440 439.4375 L 1440 441 L 1430.320312 441 Z M 1430.320312 439.4375 " clip-rule="nonzero"/></clipPath><clipPath id="0d16967310"><path d="M 1430.320312 402.613281 L 1440 402.613281 L 1440 405 L 1430.320312 405 Z M 1430.320312 402.613281 " clip-rule="nonzero"/></clipPath><clipPath id="8970d33f29"><path d="M 1430.320312 366 L 1440 366 L 1440 368 L 1430.320312 368 Z M 1430.320312 366 " clip-rule="nonzero"/></clipPath><clipPath id="a1ffcbc7ca"><path d="M 1430.320312 329 L 1440 329 L 1440 331 L 1430.320312 331 Z M 1430.320312 329 " clip-rule="nonzero"/></clipPath><clipPath id="58d3255a3c"><path d="M 1430.320312 292.140625 L 1440 292.140625 L 1440 294.597656 L 1430.320312 294.597656 Z M 1430.320312 292.140625 " clip-rule="nonzero"/></clipPath><clipPath id="2dbe86a79b"><path d="M 1430.320312 256 L 1440 256 L 1440 257.773438 L 1430.320312 257.773438 Z M 1430.320312 256 " clip-rule="nonzero"/></clipPath><clipPath id="4788c7bb58"><path d="M 1430.320312 219 L 1440 219 L 1440 220.945312 L 1430.320312 220.945312 Z M 1430.320312 219 " clip-rule="nonzero"/></clipPath><clipPath id="c106e7160b"><path d="M 1430.320312 182 L 1440 182 L 1440 184.121094 L 1430.320312 184.121094 Z M 1430.320312 182 " clip-rule="nonzero"/></clipPath><clipPath id="b75a46e5bb"><path d="M 1430.320312 146.070312 L 1440 146.070312 L 1440 148 L 1430.320312 148 Z M 1430.320312 146.070312 " clip-rule="nonzero"/></clipPath><clipPath id="cdcf75efdf"><path d="M 1430.320312 109.246094 L 1440 109.246094 L 1440 111 L 1430.320312 111 Z M 1430.320312 109.246094 " clip-rule="nonzero"/></clipPath><clipPath id="2fc169d290"><path d="M 1430.320312 72.421875 L 1440 72.421875 L 1440 74.875 L 1430.320312 74.875 Z M 1430.320312 72.421875 " clip-rule="nonzero"/></clipPath><clipPath id="67a902136a"><path d="M 1430.320312 36 L 1440 36 L 1440 38 L 1430.320312 38 Z M 1430.320312 36 " clip-rule="nonzero"/></clipPath><clipPath id="cf47364b47"><path d="M 918 0 L 920 0 L 920 476.964844 L 918 476.964844 Z M 918 0 " clip-rule="nonzero"/></clipPath><clipPath id="d79bfa6141"><path d="M 954.648438 0 L 957 0 L 957 476.964844 L 954.648438 476.964844 Z M 954.648438 0 " clip-rule="nonzero"/></clipPath><clipPath id="4b4e4bcf57"><path d="M 991.472656 0 L 993 0 L 993 476.964844 L 991.472656 476.964844 Z M 991.472656 0 " clip-rule="nonzero"/></clipPath><clipPath id="b390971c49"><path d="M 1028.296875 0 L 1030 0 L 1030 476.964844 L 1028.296875 476.964844 Z M 1028.296875 0 " clip-rule="nonzero"/></clipPath><clipPath id="0a0966970d"><path d="M 1065 0 L 1066.347656 0 L 1066.347656 476.964844 L 1065 476.964844 Z M 1065 0 " clip-rule="nonzero"/></clipPath><clipPath id="f79af4b2e1"><path d="M 1101 0 L 1103.171875 0 L 1103.171875 476.964844 L 1101 476.964844 Z M 1101 0 " clip-rule="nonzero"/></clipPath><clipPath id="aadde7cbb3"><path d="M 1138 0 L 1139.996094 0 L 1139.996094 476.964844 L 1138 476.964844 Z M 1138 0 " clip-rule="nonzero"/></clipPath><clipPath id="9951144243"><path d="M 1175 0 L 1176.824219 0 L 1176.824219 476.964844 L 1175 476.964844 Z M 1175 0 " clip-rule="nonzero"/></clipPath><clipPath id="a65bdbcbe5"><path d="M 1211.191406 0 L 1213.648438 0 L 1213.648438 476.964844 L 1211.191406 476.964844 Z M 1211.191406 0 " clip-rule="nonzero"/></clipPath><clipPath id="26216dfb9a"><path d="M 1248.015625 0 L 1250 0 L 1250 476.964844 L 1248.015625 476.964844 Z M 1248.015625 0 " clip-rule="nonzero"/></clipPath><clipPath id="592560085d"><path d="M 1285 0 L 1287 0 L 1287 476.964844 L 1285 476.964844 Z M 1285 0 " clip-rule="nonzero"/></clipPath><clipPath id="28d8173d8e"><path d="M 1321.664062 0 L 1324 0 L 1324 476.964844 L 1321.664062 476.964844 Z M 1321.664062 0 " clip-rule="nonzero"/></clipPath><clipPath id="5b8d9c53a0"><path d="M 915.269531 439.4375 L 1359.191406 439.4375 L 1359.191406 441 L 915.269531 441 Z M 915.269531 439.4375 " clip-rule="nonzero"/></clipPath><clipPath id="d29fb97a41"><path d="M 915.269531 402.613281 L 1359.191406 402.613281 L 1359.191406 405 L 915.269531 405 Z M 915.269531 402.613281 " clip-rule="nonzero"/></clipPath><clipPath id="f0fcb1ee53"><path d="M 915.269531 366 L 1359.191406 366 L 1359.191406 368 L 915.269531 368 Z M 915.269531 366 " clip-rule="nonzero"/></clipPath><clipPath id="d9b0a5454c"><path d="M 915.269531 329 L 1359.191406 329 L 1359.191406 331 L 915.269531 331 Z M 915.269531 329 " clip-rule="nonzero"/></clipPath><clipPath id="61a0c8f7ac"><path d="M 915.269531 292.140625 L 1359.191406 292.140625 L 1359.191406 294.597656 L 915.269531 294.597656 Z M 915.269531 292.140625 " clip-rule="nonzero"/></clipPath><clipPath id="bf7c6a1d3f"><path d="M 915.269531 256 L 1359.191406 256 L 1359.191406 257.773438 L 915.269531 257.773438 Z M 915.269531 256 " clip-rule="nonzero"/></clipPath><clipPath id="7cd4d36854"><path d="M 915.269531 219 L 1359.191406 219 L 1359.191406 220.945312 L 915.269531 220.945312 Z M 915.269531 219 " clip-rule="nonzero"/></clipPath><clipPath id="c830b44dc3"><path d="M 915.269531 182 L 1359.191406 182 L 1359.191406 184.121094 L 915.269531 184.121094 Z M 915.269531 182 " clip-rule="nonzero"/></clipPath><clipPath id="4b0c804443"><path d="M 915.269531 146.070312 L 1359.191406 146.070312 L 1359.191406 148 L 915.269531 148 Z M 915.269531 146.070312 " clip-rule="nonzero"/></clipPath><clipPath id="a4138c79b1"><path d="M 915.269531 109.246094 L 1359.191406 109.246094 L 1359.191406 111 L 915.269531 111 Z M 915.269531 109.246094 " clip-rule="nonzero"/></clipPath><clipPath id="04405576d7"><path d="M 915.269531 72.421875 L 1359.191406 72.421875 L 1359.191406 74.875 L 915.269531 74.875 Z M 915.269531 72.421875 " clip-rule="nonzero"/></clipPath><clipPath id="91bd2785b1"><path d="M 915.269531 36 L 1359.191406 36 L 1359.191406 38 L 915.269531 38 Z M 915.269531 36 " clip-rule="nonzero"/></clipPath><clipPath id="74d12ed80b"><path d="M 1361.570312 0 L 1364 0 L 1364 476.964844 L 1361.570312 476.964844 Z M 1361.570312 0 " clip-rule="nonzero"/></clipPath><clipPath id="315c76b7cb"><path d="M 1398.394531 0 L 1400.851562 0 L 1400.851562 476.964844 L 1398.394531 476.964844 Z M 1398.394531 0 " clip-rule="nonzero"/></clipPath><clipPath id="0b273f021f"><path d="M 1435.21875 0 L 1437 0 L 1437 476.964844 L 1435.21875 476.964844 Z M 1435.21875 0 " clip-rule="nonzero"/></clipPath><clipPath id="01a70ea615"><path d="M 1359 439.4375 L 1440 439.4375 L 1440 441 L 1359 441 Z M 1359 439.4375 " clip-rule="nonzero"/></clipPath><clipPath id="b11e9475df"><path d="M 1359 402.613281 L 1440 402.613281 L 1440 405 L 1359 405 Z M 1359 402.613281 " clip-rule="nonzero"/></clipPath><clipPath id="79a4ea1b75"><path d="M 1359 366 L 1440 366 L 1440 368 L 1359 368 Z M 1359 366 " clip-rule="nonzero"/></clipPath><clipPath id="2ea6259903"><path d="M 1359 329 L 1440 329 L 1440 331 L 1359 331 Z M 1359 329 " clip-rule="nonzero"/></clipPath><clipPath id="820e815c62"><path d="M 1359 292.140625 L 1440 292.140625 L 1440 294.597656 L 1359 294.597656 Z M 1359 292.140625 " clip-rule="nonzero"/></clipPath><clipPath id="d0dad2e53f"><path d="M 1359 256 L 1440 256 L 1440 257.773438 L 1359 257.773438 Z M 1359 256 " clip-rule="nonzero"/></clipPath><clipPath id="06226bce9c"><path d="M 1359 219 L 1440 219 L 1440 220.945312 L 1359 220.945312 Z M 1359 219 " clip-rule="nonzero"/></clipPath><clipPath id="4246435da8"><path d="M 1359 182 L 1440 182 L 1440 184.121094 L 1359 184.121094 Z M 1359 182 " clip-rule="nonzero"/></clipPath><clipPath id="6352239673"><path d="M 1359 146.070312 L 1440 146.070312 L 1440 148 L 1359 148 Z M 1359 146.070312 " clip-rule="nonzero"/></clipPath><clipPath id="251276f4a1"><path d="M 1359 109.246094 L 1440 109.246094 L 1440 111 L 1359 111 Z M 1359 109.246094 " clip-rule="nonzero"/></clipPath><clipPath id="148d5f4a8c"><path d="M 1359 72.421875 L 1440 72.421875 L 1440 74.875 L 1359 74.875 Z M 1359 72.421875 " clip-rule="nonzero"/></clipPath><clipPath id="2f0edbce44"><path d="M 1359 36 L 1440 36 L 1440 38 L 1359 38 Z M 1359 36 " clip-rule="nonzero"/></clipPath><clipPath id="b2929c964c"><path d="M 36 441.523438 L 38 441.523438 L 38 810 L 36 810 Z M 36 441.523438 " clip-rule="nonzero"/></clipPath><clipPath id="8e1eedc0a1"><path d="M 72.421875 441.523438 L 74.875 441.523438 L 74.875 810 L 72.421875 810 Z M 72.421875 441.523438 " clip-rule="nonzero"/></clipPath><clipPath id="bb2fa11707"><path d="M 109.246094 441.523438 L 111 441.523438 L 111 810 L 109.246094 810 Z M 109.246094 441.523438 " clip-rule="nonzero"/></clipPath><clipPath id="91a3a86a32"><path d="M 146.070312 441.523438 L 148 441.523438 L 148 810 L 146.070312 810 Z M 146.070312 441.523438 " clip-rule="nonzero"/></clipPath><clipPath id="454e3f739b"><path d="M 182 441.523438 L 184.121094 441.523438 L 184.121094 810 L 182 810 Z M 182 441.523438 " clip-rule="nonzero"/></clipPath><clipPath id="08b97e9cca"><path d="M 219 441.523438 L 220.945312 441.523438 L 220.945312 810 L 219 810 Z M 219 441.523438 " clip-rule="nonzero"/></clipPath><clipPath id="20526fffcf"><path d="M 256 441.523438 L 257.769531 441.523438 L 257.769531 810 L 256 810 Z M 256 441.523438 " clip-rule="nonzero"/></clipPath><clipPath id="447624649c"><path d="M 292.140625 441.523438 L 294.597656 441.523438 L 294.597656 810 L 292.140625 810 Z M 292.140625 441.523438 " clip-rule="nonzero"/></clipPath><clipPath id="f82796d161"><path d="M 329 441.523438 L 331 441.523438 L 331 810 L 329 810 Z M 329 441.523438 " clip-rule="nonzero"/></clipPath><clipPath id="fcc8e6ff15"><path d="M 366 441.523438 L 368 441.523438 L 368 810 L 366 810 Z M 366 441.523438 " clip-rule="nonzero"/></clipPath><clipPath id="1a81121620"><path d="M 402.613281 441.523438 L 405 441.523438 L 405 810 L 402.613281 810 Z M 402.613281 441.523438 " clip-rule="nonzero"/></clipPath><clipPath id="dcb05e97cc"><path d="M 439.4375 441.523438 L 441 441.523438 L 441 810 L 439.4375 810 Z M 439.4375 441.523438 " clip-rule="nonzero"/></clipPath><clipPath id="880e493231"><path d="M 0 807.3125 L 476.964844 807.3125 L 476.964844 809.769531 L 0 809.769531 Z M 0 807.3125 " clip-rule="nonzero"/></clipPath><clipPath id="68ebdb3abd"><path d="M 0 771 L 476.964844 771 L 476.964844 772.945312 L 0 772.945312 Z M 0 771 " clip-rule="nonzero"/></clipPath><clipPath id="c7f215c846"><path d="M 0 734 L 476.964844 734 L 476.964844 736 L 0 736 Z M 0 734 " clip-rule="nonzero"/></clipPath><clipPath id="8b263f6ad6"><path d="M 0 697 L 476.964844 697 L 476.964844 699.296875 L 0 699.296875 Z M 0 697 " clip-rule="nonzero"/></clipPath><clipPath id="79bf2201cf"><path d="M 0 660.015625 L 476.964844 660.015625 L 476.964844 662.46875 L 0 662.46875 Z M 0 660.015625 " clip-rule="nonzero"/></clipPath><clipPath id="b4255b6b19"><path d="M 0 624 L 476.964844 624 L 476.964844 625.644531 L 0 625.644531 Z M 0 624 " clip-rule="nonzero"/></clipPath><clipPath id="bb012523cf"><path d="M 0 587.59375 L 476.964844 587.59375 L 476.964844 589 L 0 589 Z M 0 587.59375 " clip-rule="nonzero"/></clipPath><clipPath id="8ec717b570"><path d="M 0 550.769531 L 476.964844 550.769531 L 476.964844 553 L 0 553 Z M 0 550.769531 " clip-rule="nonzero"/></clipPath><clipPath id="a9643c8063"><path d="M 0 514 L 476.964844 514 L 476.964844 516 L 0 516 Z M 0 514 " clip-rule="nonzero"/></clipPath><clipPath id="56caf27584"><path d="M 0 477.121094 L 476.964844 477.121094 L 476.964844 479 L 0 479 Z M 0 477.121094 " clip-rule="nonzero"/></clipPath><clipPath id="bae774dc6a"><path d="M 475.421875 441.523438 L 477.875 441.523438 L 477.875 810 L 475.421875 810 Z M 475.421875 441.523438 " clip-rule="nonzero"/></clipPath><clipPath id="968d1db824"><path d="M 512.246094 441.523438 L 514 441.523438 L 514 810 L 512.246094 810 Z M 512.246094 441.523438 " clip-rule="nonzero"/></clipPath><clipPath id="127ca45229"><path d="M 549.070312 441.523438 L 551 441.523438 L 551 810 L 549.070312 810 Z M 549.070312 441.523438 " clip-rule="nonzero"/></clipPath><clipPath id="452e473b34"><path d="M 585.894531 441.523438 L 588 441.523438 L 588 810 L 585.894531 810 Z M 585.894531 441.523438 " clip-rule="nonzero"/></clipPath><clipPath id="090095001b"><path d="M 622 441.523438 L 623.945312 441.523438 L 623.945312 810 L 622 810 Z M 622 441.523438 " clip-rule="nonzero"/></clipPath><clipPath id="b95871665b"><path d="M 659 441.523438 L 660.769531 441.523438 L 660.769531 810 L 659 810 Z M 659 441.523438 " clip-rule="nonzero"/></clipPath><clipPath id="d1cf776890"><path d="M 695.140625 441.523438 L 697.597656 441.523438 L 697.597656 810 L 695.140625 810 Z M 695.140625 441.523438 " clip-rule="nonzero"/></clipPath><clipPath id="7c8b959586"><path d="M 732 441.523438 L 734.421875 441.523438 L 734.421875 810 L 732 810 Z M 732 441.523438 " clip-rule="nonzero"/></clipPath><clipPath id="af0de3ce94"><path d="M 769 441.523438 L 771 441.523438 L 771 810 L 769 810 Z M 769 441.523438 " clip-rule="nonzero"/></clipPath><clipPath id="f4a64a5cf9"><path d="M 806 441.523438 L 808 441.523438 L 808 810 L 806 810 Z M 806 441.523438 " clip-rule="nonzero"/></clipPath><clipPath id="ba34ee590b"><path d="M 842.4375 441.523438 L 844.894531 441.523438 L 844.894531 810 L 842.4375 810 Z M 842.4375 441.523438 " clip-rule="nonzero"/></clipPath><clipPath id="24370e32fa"><path d="M 879.261719 441.523438 L 881 441.523438 L 881 810 L 879.261719 810 Z M 879.261719 441.523438 " clip-rule="nonzero"/></clipPath><clipPath id="fe197e6469"><path d="M 472.867188 807.3125 L 916.789062 807.3125 L 916.789062 809.769531 L 472.867188 809.769531 Z M 472.867188 807.3125 " clip-rule="nonzero"/></clipPath><clipPath id="9886551389"><path d="M 472.867188 771 L 916.789062 771 L 916.789062 772.945312 L 472.867188 772.945312 Z M 472.867188 771 " clip-rule="nonzero"/></clipPath><clipPath id="4ae8f032c2"><path d="M 472.867188 734 L 916.789062 734 L 916.789062 736 L 472.867188 736 Z M 472.867188 734 " clip-rule="nonzero"/></clipPath><clipPath id="c82cb2d678"><path d="M 472.867188 697 L 916.789062 697 L 916.789062 699.296875 L 472.867188 699.296875 Z M 472.867188 697 " clip-rule="nonzero"/></clipPath><clipPath id="0fd996533a"><path d="M 472.867188 660.015625 L 916.789062 660.015625 L 916.789062 662.46875 L 472.867188 662.46875 Z M 472.867188 660.015625 " clip-rule="nonzero"/></clipPath><clipPath id="839db572e0"><path d="M 472.867188 624 L 916.789062 624 L 916.789062 625.644531 L 472.867188 625.644531 Z M 472.867188 624 " clip-rule="nonzero"/></clipPath><clipPath id="5322b3e86d"><path d="M 472.867188 587.59375 L 916.789062 587.59375 L 916.789062 589 L 472.867188 589 Z M 472.867188 587.59375 " clip-rule="nonzero"/></clipPath><clipPath id="74ef767a7f"><path d="M 472.867188 550.769531 L 916.789062 550.769531 L 916.789062 553 L 472.867188 553 Z M 472.867188 550.769531 " clip-rule="nonzero"/></clipPath><clipPath id="9b905feb2b"><path d="M 472.867188 514 L 916.789062 514 L 916.789062 516 L 472.867188 516 Z M 472.867188 514 " clip-rule="nonzero"/></clipPath><clipPath id="4247a70574"><path d="M 472.867188 477.121094 L 916.789062 477.121094 L 916.789062 479 L 472.867188 479 Z M 472.867188 477.121094 " clip-rule="nonzero"/></clipPath><clipPath id="d1dcbf9294"><path d="M 1430.320312 807.3125 L 1440 807.3125 L 1440 809.769531 L 1430.320312 809.769531 Z M 1430.320312 807.3125 " clip-rule="nonzero"/></clipPath><clipPath id="093e077016"><path d="M 1430.320312 771 L 1440 771 L 1440 772.945312 L 1430.320312 772.945312 Z M 1430.320312 771 " clip-rule="nonzero"/></clipPath><clipPath id="5352f67a23"><path d="M 1430.320312 734 L 1440 734 L 1440 736 L 1430.320312 736 Z M 1430.320312 734 " clip-rule="nonzero"/></clipPath><clipPath id="fce04b512d"><path d="M 1430.320312 697 L 1440 697 L 1440 699.296875 L 1430.320312 699.296875 Z M 1430.320312 697 " clip-rule="nonzero"/></clipPath><clipPath id="080d56f9a6"><path d="M 1430.320312 660.015625 L 1440 660.015625 L 1440 662.46875 L 1430.320312 662.46875 Z M 1430.320312 660.015625 " clip-rule="nonzero"/></clipPath><clipPath id="7409b3a1d0"><path d="M 1430.320312 624 L 1440 624 L 1440 625.644531 L 1430.320312 625.644531 Z M 1430.320312 624 " clip-rule="nonzero"/></clipPath><clipPath id="fe869fa6d9"><path d="M 1430.320312 587.59375 L 1440 587.59375 L 1440 589 L 1430.320312 589 Z M 1430.320312 587.59375 " clip-rule="nonzero"/></clipPath><clipPath id="af30770f28"><path d="M 1430.320312 550.769531 L 1440 550.769531 L 1440 553 L 1430.320312 553 Z M 1430.320312 550.769531 " clip-rule="nonzero"/></clipPath><clipPath id="75fd20cb14"><path d="M 1430.320312 514 L 1440 514 L 1440 516 L 1430.320312 516 Z M 1430.320312 514 " clip-rule="nonzero"/></clipPath><clipPath id="738403fadd"><path d="M 1430.320312 477.121094 L 1440 477.121094 L 1440 479 L 1430.320312 479 Z M 1430.320312 477.121094 " clip-rule="nonzero"/></clipPath><clipPath id="804836205c"><path d="M 918 441.523438 L 920 441.523438 L 920 810 L 918 810 Z M 918 441.523438 " clip-rule="nonzero"/></clipPath><clipPath id="7b4003e4ed"><path d="M 954.648438 441.523438 L 957 441.523438 L 957 810 L 954.648438 810 Z M 954.648438 441.523438 " clip-rule="nonzero"/></clipPath><clipPath id="49549f228f"><path d="M 991.472656 441.523438 L 993 441.523438 L 993 810 L 991.472656 810 Z M 991.472656 441.523438 " clip-rule="nonzero"/></clipPath><clipPath id="cd8751ce7d"><path d="M 1028.296875 441.523438 L 1030 441.523438 L 1030 810 L 1028.296875 810 Z M 1028.296875 441.523438 " clip-rule="nonzero"/></clipPath><clipPath id="b2e9bad9e8"><path d="M 1065 441.523438 L 1066.347656 441.523438 L 1066.347656 810 L 1065 810 Z M 1065 441.523438 " clip-rule="nonzero"/></clipPath><clipPath id="1a71f29808"><path d="M 1101 441.523438 L 1103.171875 441.523438 L 1103.171875 810 L 1101 810 Z M 1101 441.523438 " clip-rule="nonzero"/></clipPath><clipPath id="6ce4970722"><path d="M 1138 441.523438 L 1139.996094 441.523438 L 1139.996094 810 L 1138 810 Z M 1138 441.523438 " clip-rule="nonzero"/></clipPath><clipPath id="0fc0040dd7"><path d="M 1175 441.523438 L 1176.824219 441.523438 L 1176.824219 810 L 1175 810 Z M 1175 441.523438 " clip-rule="nonzero"/></clipPath><clipPath id="7f1412b1fe"><path d="M 1211.191406 441.523438 L 1213.648438 441.523438 L 1213.648438 810 L 1211.191406 810 Z M 1211.191406 441.523438 " clip-rule="nonzero"/></clipPath><clipPath id="d1f6d76dc5"><path d="M 1248.015625 441.523438 L 1250 441.523438 L 1250 810 L 1248.015625 810 Z M 1248.015625 441.523438 " clip-rule="nonzero"/></clipPath><clipPath id="7b2d6d596e"><path d="M 1285 441.523438 L 1287 441.523438 L 1287 810 L 1285 810 Z M 1285 441.523438 " clip-rule="nonzero"/></clipPath><clipPath id="0374f0ab54"><path d="M 1321.664062 441.523438 L 1324 441.523438 L 1324 810 L 1321.664062 810 Z M 1321.664062 441.523438 " clip-rule="nonzero"/></clipPath><clipPath id="427681f0fa"><path d="M 915.269531 807.3125 L 1359.191406 807.3125 L 1359.191406 809.769531 L 915.269531 809.769531 Z M 915.269531 807.3125 " clip-rule="nonzero"/></clipPath><clipPath id="c9933948e1"><path d="M 915.269531 771 L 1359.191406 771 L 1359.191406 772.945312 L 915.269531 772.945312 Z M 915.269531 771 " clip-rule="nonzero"/></clipPath><clipPath id="136bcf8223"><path d="M 915.269531 734 L 1359.191406 734 L 1359.191406 736 L 915.269531 736 Z M 915.269531 734 " clip-rule="nonzero"/></clipPath><clipPath id="08f78164e3"><path d="M 915.269531 697 L 1359.191406 697 L 1359.191406 699.296875 L 915.269531 699.296875 Z M 915.269531 697 " clip-rule="nonzero"/></clipPath><clipPath id="305eb63254"><path d="M 915.269531 660.015625 L 1359.191406 660.015625 L 1359.191406 662.46875 L 915.269531 662.46875 Z M 915.269531 660.015625 " clip-rule="nonzero"/></clipPath><clipPath id="0f8b1c8fda"><path d="M 915.269531 624 L 1359.191406 624 L 1359.191406 625.644531 L 915.269531 625.644531 Z M 915.269531 624 " clip-rule="nonzero"/></clipPath><clipPath id="14f343c37b"><path d="M 915.269531 587.59375 L 1359.191406 587.59375 L 1359.191406 589 L 915.269531 589 Z M 915.269531 587.59375 " clip-rule="nonzero"/></clipPath><clipPath id="d411e42858"><path d="M 915.269531 550.769531 L 1359.191406 550.769531 L 1359.191406 553 L 915.269531 553 Z M 915.269531 550.769531 " clip-rule="nonzero"/></clipPath><clipPath id="21d5132c78"><path d="M 915.269531 514 L 1359.191406 514 L 1359.191406 516 L 915.269531 516 Z M 915.269531 514 " clip-rule="nonzero"/></clipPath><clipPath id="5ecfc53685"><path d="M 915.269531 477.121094 L 1359.191406 477.121094 L 1359.191406 479 L 915.269531 479 Z M 915.269531 477.121094 " clip-rule="nonzero"/></clipPath><clipPath id="66c724eb1f"><path d="M 1361.570312 441.523438 L 1364 441.523438 L 1364 810 L 1361.570312 810 Z M 1361.570312 441.523438 " clip-rule="nonzero"/></clipPath><clipPath id="e44444a8ae"><path d="M 1398.394531 441.523438 L 1400.851562 441.523438 L 1400.851562 810 L 1398.394531 810 Z M 1398.394531 441.523438 " clip-rule="nonzero"/></clipPath><clipPath id="d2ea131930"><path d="M 1435.21875 441.523438 L 1437 441.523438 L 1437 810 L 1435.21875 810 Z M 1435.21875 441.523438 " clip-rule="nonzero"/></clipPath><clipPath id="57ca328ba7"><path d="M 1359 807.3125 L 1440 807.3125 L 1440 809.769531 L 1359 809.769531 Z M 1359 807.3125 " clip-rule="nonzero"/></clipPath><clipPath id="575bafeba9"><path d="M 1359 771 L 1440 771 L 1440 772.945312 L 1359 772.945312 Z M 1359 771 " clip-rule="nonzero"/></clipPath><clipPath id="aba6634f64"><path d="M 1359 734 L 1440 734 L 1440 736 L 1359 736 Z M 1359 734 " clip-rule="nonzero"/></clipPath><clipPath id="286c2847a5"><path d="M 1359 697 L 1440 697 L 1440 699.296875 L 1359 699.296875 Z M 1359 697 " clip-rule="nonzero"/></clipPath><clipPath id="a19cec2448"><path d="M 1359 660.015625 L 1440 660.015625 L 1440 662.46875 L 1359 662.46875 Z M 1359 660.015625 " clip-rule="nonzero"/></clipPath><clipPath id="742a1bb6c8"><path d="M 1359 624 L 1440 624 L 1440 625.644531 L 1359 625.644531 Z M 1359 624 " clip-rule="nonzero"/></clipPath><clipPath id="f423d32722"><path d="M 1359 587.59375 L 1440 587.59375 L 1440 589 L 1359 589 Z M 1359 587.59375 " clip-rule="nonzero"/></clipPath><clipPath id="286020b0b6"><path d="M 1359 550.769531 L 1440 550.769531 L 1440 553 L 1359 553 Z M 1359 550.769531 " clip-rule="nonzero"/></clipPath><clipPath id="b70380f73b"><path d="M 1359 514 L 1440 514 L 1440 516 L 1359 516 Z M 1359 514 " clip-rule="nonzero"/></clipPath><clipPath id="583be1dd81"><path d="M 1359 477.121094 L 1440 477.121094 L 1440 479 L 1359 479 Z M 1359 477.121094 " clip-rule="nonzero"/></clipPath></defs><g clip-path="url(#a6c457c19d)"><path fill="#2e2e2e" d="M 37.355469 476.964844 L 36.023438 476.964844 L 36.023438 0 L 37.355469 0 L 37.355469 476.964844 " fill-opacity="1" fill-rule="nonzero"/></g><g clip-path="url(#012a7ade81)"><path fill="#2e2e2e" d="M 74.046875 476.964844 L 72.714844 476.964844 L 72.714844 0 L 74.046875 0 L 74.046875 476.964844 " fill-opacity="1" fill-rule="nonzero"/></g><g clip-path="url(#749e2ec560)"><path fill="#2e2e2e" d="M 110.730469 476.964844 L 109.402344 476.964844 L 109.402344 0 L 110.730469 0 L 110.730469 476.964844 " fill-opacity="1" fill-rule="nonzero"/></g><g clip-path="url(#1a6e61ce22)"><path fill="#2e2e2e" d="M 147.421875 476.964844 L 146.089844 476.964844 L 146.089844 0 L 147.421875 0 L 147.421875 476.964844 " fill-opacity="1" fill-rule="nonzero"/></g><g clip-path="url(#390f1e55d0)"><path fill="#2e2e2e" d="M 184.113281 476.964844 L 182.78125 476.964844 L 182.78125 0 L 184.113281 0 L 184.113281 476.964844 " fill-opacity="1" fill-rule="nonzero"/></g><g clip-path="url(#7d9533b12c)"><path fill="#2e2e2e" d="M 220.804688 476.964844 L 219.46875 476.964844 L 219.46875 0 L 220.804688 0 L 220.804688 476.964844 " fill-opacity="1" fill-rule="nonzero"/></g><g clip-path="url(#12f678a6d1)"><path fill="#2e2e2e" d="M 257.492188 476.964844 L 256.160156 476.964844 L 256.160156 0 L 257.492188 0 L 257.492188 476.964844 " fill-opacity="1" fill-rule="nonzero"/></g><g clip-path="url(#adfee0dea8)"><path fill="#2e2e2e" d="M 294.183594 476.964844 L 292.851562 476.964844 L 292.851562 0 L 294.183594 0 L 294.183594 476.964844 " fill-opacity="1" fill-rule="nonzero"/></g><g clip-path="url(#a9369fd55e)"><path fill="#2e2e2e" d="M 330.867188 476.964844 L 329.535156 476.964844 L 329.535156 0 L 330.867188 0 L 330.867188 476.964844 " fill-opacity="1" fill-rule="nonzero"/></g><g clip-path="url(#6a59fd3315)"><path fill="#2e2e2e" d="M 367.558594 476.964844 L 366.226562 476.964844 L 366.226562 0 L 367.558594 0 L 367.558594 476.964844 " fill-opacity="1" fill-rule="nonzero"/></g><g clip-path="url(#dcea410c54)"><path fill="#2e2e2e" d="M 404.25 476.964844 L 402.917969 476.964844 L 402.917969 0 L 404.25 0 L 404.25 476.964844 " fill-opacity="1" fill-rule="nonzero"/></g><g clip-path="url(#b178937d1a)"><path fill="#2e2e2e" d="M 440.941406 476.964844 L 439.605469 476.964844 L 439.605469 0 L 440.941406 0 L 440.941406 476.964844 " fill-opacity="1" fill-rule="nonzero"/></g><g clip-path="url(#bc1caedb6e)"><path fill="#2e2e2e" d="M 476.964844 440.941406 L 0 440.941406 L 0 439.605469 L 476.964844 439.605469 L 476.964844 440.941406 " fill-opacity="1" fill-rule="nonzero"/></g><g clip-path="url(#3b0fa37f23)"><path fill="#2e2e2e" d="M 476.964844 404.25 L 0 404.25 L 0 402.917969 L 476.964844 402.917969 L 476.964844 404.25 " fill-opacity="1" fill-rule="nonzero"/></g><g clip-path="url(#2db3774219)"><path fill="#2e2e2e" d="M 476.964844 367.558594 L 0 367.558594 L 0 366.226562 L 476.964844 366.226562 L 476.964844 367.558594 " fill-opacity="1" fill-rule="nonzero"/></g><g clip-path="url(#f182957ecb)"><path fill="#2e2e2e" d="M 476.964844 330.867188 L 0 330.867188 L 0 329.535156 L 476.964844 329.535156 L 476.964844 330.867188 " fill-opacity="1" fill-rule="nonzero"/></g><g clip-path="url(#98dc4ea2e1)"><path fill="#2e2e2e" d="M 476.964844 294.183594 L 0 294.183594 L 0 292.851562 L 476.964844 292.851562 L 476.964844 294.183594 " fill-opacity="1" fill-rule="nonzero"/></g><g clip-path="url(#66ec27a494)"><path fill="#2e2e2e" d="M 476.964844 257.492188 L 0 257.492188 L 0 256.160156 L 476.964844 256.160156 L 476.964844 257.492188 " fill-opacity="1" fill-rule="nonzero"/></g><g clip-path="url(#b4f0689026)"><path fill="#2e2e2e" d="M 476.964844 220.804688 L 0 220.804688 L 0 219.46875 L 476.964844 219.46875 L 476.964844 220.804688 " fill-opacity="1" fill-rule="nonzero"/></g><g clip-path="url(#406865f7a9)"><path fill="#2e2e2e" d="M 476.964844 184.113281 L 0 184.113281 L 0 182.78125 L 476.964844 182.78125 L 476.964844 184.113281 " fill-opacity="1" fill-rule="nonzero"/></g><g clip-path="url(#661faa1401)"><path fill="#2e2e2e" d="M 476.964844 147.421875 L 0 147.421875 L 0 146.089844 L 476.964844 146.089844 L 476.964844 147.421875 " fill-opacity="1" fill-rule="nonzero"/></g><g clip-path="url(#dab70f423e)"><path fill="#2e2e2e" d="M 476.964844 110.738281 L 0 110.738281 L 0 109.402344 L 476.964844 109.402344 L 476.964844 110.738281 " fill-opacity="1" fill-rule="nonzero"/></g><g clip-path="url(#a3ff01cfc6)"><path fill="#2e2e2e" d="M 476.964844 74.046875 L 0 74.046875 L 0 72.714844 L 476.964844 72.714844 L 476.964844 74.046875 " fill-opacity="1" fill-rule="nonzero"/></g><g clip-path="url(#559376447d)"><path fill="#2e2e2e" d="M 476.964844 37.355469 L 0 37.355469 L 0 36.023438 L 476.964844 36.023438 L 476.964844 37.355469 " fill-opacity="1" fill-rule="nonzero"/></g><g clip-path="url(#51e3b02ec6)"><path fill="#2e2e2e" d="M 477.179688 476.964844 L 475.847656 476.964844 L 475.847656 0 L 477.179688 0 L 477.179688 476.964844 " fill-opacity="1" fill-rule="nonzero"/></g><g clip-path="url(#fafce55494)"><path fill="#2e2e2e" d="M 513.871094 476.964844 L 512.539062 476.964844 L 512.539062 0 L 513.871094 0 L 513.871094 476.964844 " fill-opacity="1" fill-rule="nonzero"/></g><g clip-path="url(#59d98cbe8f)"><path fill="#2e2e2e" d="M 550.558594 476.964844 L 549.230469 476.964844 L 549.230469 0 L 550.558594 0 L 550.558594 476.964844 " fill-opacity="1" fill-rule="nonzero"/></g><g clip-path="url(#1b10df2a37)"><path fill="#2e2e2e" d="M 587.246094 476.964844 L 585.914062 476.964844 L 585.914062 0 L 587.246094 0 L 587.246094 476.964844 " fill-opacity="1" fill-rule="nonzero"/></g><g clip-path="url(#1de625802c)"><path fill="#2e2e2e" d="M 623.9375 476.964844 L 622.605469 476.964844 L 622.605469 0 L 623.9375 0 L 623.9375 476.964844 " fill-opacity="1" fill-rule="nonzero"/></g><g clip-path="url(#d03bd305cc)"><path fill="#2e2e2e" d="M 660.628906 476.964844 L 659.292969 476.964844 L 659.292969 0 L 660.628906 0 L 660.628906 476.964844 " fill-opacity="1" fill-rule="nonzero"/></g><g clip-path="url(#735e9ce3bd)"><path fill="#2e2e2e" d="M 697.316406 476.964844 L 695.984375 476.964844 L 695.984375 0 L 697.316406 0 L 697.316406 476.964844 " fill-opacity="1" fill-rule="nonzero"/></g><g clip-path="url(#b06cb08aa2)"><path fill="#2e2e2e" d="M 734.007812 476.964844 L 732.675781 476.964844 L 732.675781 0 L 734.007812 0 L 734.007812 476.964844 " fill-opacity="1" fill-rule="nonzero"/></g><g clip-path="url(#9575770329)"><path fill="#2e2e2e" d="M 770.695312 476.964844 L 769.359375 476.964844 L 769.359375 0 L 770.695312 0 L 770.695312 476.964844 " fill-opacity="1" fill-rule="nonzero"/></g><g clip-path="url(#032c688ec2)"><path fill="#2e2e2e" d="M 807.382812 476.964844 L 806.050781 476.964844 L 806.050781 0 L 807.382812 0 L 807.382812 476.964844 " fill-opacity="1" fill-rule="nonzero"/></g><g clip-path="url(#3d9a5ec0e7)"><path fill="#2e2e2e" d="M 844.074219 476.964844 L 842.742188 476.964844 L 842.742188 0 L 844.074219 0 L 844.074219 476.964844 " fill-opacity="1" fill-rule="nonzero"/></g><g clip-path="url(#87f83a7729)"><path fill="#2e2e2e" d="M 880.765625 476.964844 L 879.429688 476.964844 L 879.429688 0 L 880.765625 0 L 880.765625 476.964844 " fill-opacity="1" fill-rule="nonzero"/></g><g clip-path="url(#c32ec476ad)"><path fill="#2e2e2e" d="M 916.789062 440.941406 L 439.824219 440.941406 L 439.824219 439.605469 L 916.789062 439.605469 L 916.789062 440.941406 " fill-opacity="1" fill-rule="nonzero"/></g><g clip-path="url(#412b40682d)"><path fill="#2e2e2e" d="M 916.789062 404.25 L 439.824219 404.25 L 439.824219 402.917969 L 916.789062 402.917969 L 916.789062 404.25 " fill-opacity="1" fill-rule="nonzero"/></g><g clip-path="url(#a611a3e939)"><path fill="#2e2e2e" d="M 916.789062 367.558594 L 439.824219 367.558594 L 439.824219 366.226562 L 916.789062 366.226562 L 916.789062 367.558594 " fill-opacity="1" fill-rule="nonzero"/></g><g clip-path="url(#082bdfe041)"><path fill="#2e2e2e" d="M 916.789062 330.867188 L 439.824219 330.867188 L 439.824219 329.535156 L 916.789062 329.535156 L 916.789062 330.867188 " fill-opacity="1" fill-rule="nonzero"/></g><g clip-path="url(#961c924ce4)"><path fill="#2e2e2e" d="M 916.789062 294.183594 L 439.824219 294.183594 L 439.824219 292.851562 L 916.789062 292.851562 L 916.789062 294.183594 " fill-opacity="1" fill-rule="nonzero"/></g><g clip-path="url(#6f1c4caf93)"><path fill="#2e2e2e" d="M 916.789062 257.492188 L 439.824219 257.492188 L 439.824219 256.160156 L 916.789062 256.160156 L 916.789062 257.492188 " fill-opacity="1" fill-rule="nonzero"/></g><g clip-path="url(#221b52c6b4)"><path fill="#2e2e2e" d="M 916.789062 220.804688 L 439.824219 220.804688 L 439.824219 219.46875 L 916.789062 219.46875 L 916.789062 220.804688 " fill-opacity="1" fill-rule="nonzero"/></g><g clip-path="url(#a1a9262006)"><path fill="#2e2e2e" d="M 916.789062 184.113281 L 439.824219 184.113281 L 439.824219 182.78125 L 916.789062 182.78125 L 916.789062 184.113281 " fill-opacity="1" fill-rule="nonzero"/></g><g clip-path="url(#bb33dabe7c)"><path fill="#2e2e2e" d="M 916.789062 147.421875 L 439.824219 147.421875 L 439.824219 146.089844 L 916.789062 146.089844 L 916.789062 147.421875 " fill-opacity="1" fill-rule="nonzero"/></g><g clip-path="url(#31bb970f9a)"><path fill="#2e2e2e" d="M 916.789062 110.738281 L 439.824219 110.738281 L 439.824219 109.402344 L 916.789062 109.402344 L 916.789062 110.738281 " fill-opacity="1" fill-rule="nonzero"/></g><g clip-path="url(#509367aab9)"><path fill="#2e2e2e" d="M 916.789062 74.046875 L 439.824219 74.046875 L 439.824219 72.714844 L 916.789062 72.714844 L 916.789062 74.046875 " fill-opacity="1" fill-rule="nonzero"/></g><g clip-path="url(#a3bea1af97)"><path fill="#2e2e2e" d="M 916.789062 37.355469 L 439.824219 37.355469 L 439.824219 36.023438 L 916.789062 36.023438 L 916.789062 37.355469 " fill-opacity="1" fill-rule="nonzero"/></g><g clip-path="url(#7f05a2003a)"><path fill="#2e2e2e" d="M 1907.285156 440.941406 L 1430.320312 440.941406 L 1430.320312 439.605469 L 1907.285156 439.605469 L 1907.285156 440.941406 " fill-opacity="1" fill-rule="nonzero"/></g><g clip-path="url(#0d16967310)"><path fill="#2e2e2e" d="M 1907.285156 404.25 L 1430.320312 404.25 L 1430.320312 402.917969 L 1907.285156 402.917969 L 1907.285156 404.25 " fill-opacity="1" fill-rule="nonzero"/></g><g clip-path="url(#8970d33f29)"><path fill="#2e2e2e" d="M 1907.285156 367.558594 L 1430.320312 367.558594 L 1430.320312 366.226562 L 1907.285156 366.226562 L 1907.285156 367.558594 " fill-opacity="1" fill-rule="nonzero"/></g><g clip-path="url(#a1ffcbc7ca)"><path fill="#2e2e2e" d="M 1907.285156 330.867188 L 1430.320312 330.867188 L 1430.320312 329.535156 L 1907.285156 329.535156 L 1907.285156 330.867188 " fill-opacity="1" fill-rule="nonzero"/></g><g clip-path="url(#58d3255a3c)"><path fill="#2e2e2e" d="M 1907.285156 294.183594 L 1430.320312 294.183594 L 1430.320312 292.851562 L 1907.285156 292.851562 L 1907.285156 294.183594 " fill-opacity="1" fill-rule="nonzero"/></g><g clip-path="url(#2dbe86a79b)"><path fill="#2e2e2e" d="M 1907.285156 257.492188 L 1430.320312 257.492188 L 1430.320312 256.160156 L 1907.285156 256.160156 L 1907.285156 257.492188 " fill-opacity="1" fill-rule="nonzero"/></g><g clip-path="url(#4788c7bb58)"><path fill="#2e2e2e" d="M 1907.285156 220.804688 L 1430.320312 220.804688 L 1430.320312 219.46875 L 1907.285156 219.46875 L 1907.285156 220.804688 " fill-opacity="1" fill-rule="nonzero"/></g><g clip-path="url(#c106e7160b)"><path fill="#2e2e2e" d="M 1907.285156 184.113281 L 1430.320312 184.113281 L 1430.320312 182.78125 L 1907.285156 182.78125 L 1907.285156 184.113281 " fill-opacity="1" fill-rule="nonzero"/></g><g clip-path="url(#b75a46e5bb)"><path fill="#2e2e2e" d="M 1907.285156 147.421875 L 1430.320312 147.421875 L 1430.320312 146.089844 L 1907.285156 146.089844 L 1907.285156 147.421875 " fill-opacity="1" fill-rule="nonzero"/></g><g clip-path="url(#cdcf75efdf)"><path fill="#2e2e2e" d="M 1907.285156 110.738281 L 1430.320312 110.738281 L 1430.320312 109.402344 L 1907.285156 109.402344 L 1907.285156 110.738281 " fill-opacity="1" fill-rule="nonzero"/></g><g clip-path="url(#2fc169d290)"><path fill="#2e2e2e" d="M 1907.285156 74.046875 L 1430.320312 74.046875 L 1430.320312 72.714844 L 1907.285156 72.714844 L 1907.285156 74.046875 " fill-opacity="1" fill-rule="nonzero"/></g><g clip-path="url(#67a902136a)"><path fill="#2e2e2e" d="M 1907.285156 37.355469 L 1430.320312 37.355469 L 1430.320312 36.023438 L 1907.285156 36.023438 L 1907.285156 37.355469 " fill-opacity="1" fill-rule="nonzero"/></g><g clip-path="url(#cf47364b47)"><path fill="#2e2e2e" d="M 919.582031 476.964844 L 918.25 476.964844 L 918.25 0 L 919.582031 0 L 919.582031 476.964844 " fill-opacity="1" fill-rule="nonzero"/></g><g clip-path="url(#d79bfa6141)"><path fill="#2e2e2e" d="M 956.273438 476.964844 L 954.941406 476.964844 L 954.941406 0 L 956.273438 0 L 956.273438 476.964844 " fill-opacity="1" fill-rule="nonzero"/></g><g clip-path="url(#4b4e4bcf57)"><path fill="#2e2e2e" d="M 992.957031 476.964844 L 991.628906 476.964844 L 991.628906 0 L 992.957031 0 L 992.957031 476.964844 " fill-opacity="1" fill-rule="nonzero"/></g><g clip-path="url(#b390971c49)"><path fill="#2e2e2e" d="M 1029.648438 476.964844 L 1028.316406 476.964844 L 1028.316406 0 L 1029.648438 0 L 1029.648438 476.964844 " fill-opacity="1" fill-rule="nonzero"/></g><g clip-path="url(#0a0966970d)"><path fill="#2e2e2e" d="M 1066.339844 476.964844 L 1065.007812 476.964844 L 1065.007812 0 L 1066.339844 0 L 1066.339844 476.964844 " fill-opacity="1" fill-rule="nonzero"/></g><g clip-path="url(#f79af4b2e1)"><path fill="#2e2e2e" d="M 1103.03125 476.964844 L 1101.695312 476.964844 L 1101.695312 0 L 1103.03125 0 L 1103.03125 476.964844 " fill-opacity="1" fill-rule="nonzero"/></g><g clip-path="url(#aadde7cbb3)"><path fill="#2e2e2e" d="M 1139.71875 476.964844 L 1138.386719 476.964844 L 1138.386719 0 L 1139.71875 0 L 1139.71875 476.964844 " fill-opacity="1" fill-rule="nonzero"/></g><g clip-path="url(#9951144243)"><path fill="#2e2e2e" d="M 1176.410156 476.964844 L 1175.078125 476.964844 L 1175.078125 0 L 1176.410156 0 L 1176.410156 476.964844 " fill-opacity="1" fill-rule="nonzero"/></g><g clip-path="url(#a65bdbcbe5)"><path fill="#2e2e2e" d="M 1213.09375 476.964844 L 1211.761719 476.964844 L 1211.761719 0 L 1213.09375 0 L 1213.09375 476.964844 " fill-opacity="1" fill-rule="nonzero"/></g><g clip-path="url(#26216dfb9a)"><path fill="#2e2e2e" d="M 1249.785156 476.964844 L 1248.453125 476.964844 L 1248.453125 0 L 1249.785156 0 L 1249.785156 476.964844 " fill-opacity="1" fill-rule="nonzero"/></g><g clip-path="url(#592560085d)"><path fill="#2e2e2e" d="M 1286.476562 476.964844 L 1285.144531 476.964844 L 1285.144531 0 L 1286.476562 0 L 1286.476562 476.964844 " fill-opacity="1" fill-rule="nonzero"/></g><g clip-path="url(#28d8173d8e)"><path fill="#2e2e2e" d="M 1323.167969 476.964844 L 1321.832031 476.964844 L 1321.832031 0 L 1323.167969 0 L 1323.167969 476.964844 " fill-opacity="1" fill-rule="nonzero"/></g><g clip-path="url(#5b8d9c53a0)"><path fill="#2e2e2e" d="M 1359.191406 440.941406 L 882.226562 440.941406 L 882.226562 439.605469 L 1359.191406 439.605469 L 1359.191406 440.941406 " fill-opacity="1" fill-rule="nonzero"/></g><g clip-path="url(#d29fb97a41)"><path fill="#2e2e2e" d="M 1359.191406 404.25 L 882.226562 404.25 L 882.226562 402.917969 L 1359.191406 402.917969 L 1359.191406 404.25 " fill-opacity="1" fill-rule="nonzero"/></g><g clip-path="url(#f0fcb1ee53)"><path fill="#2e2e2e" d="M 1359.191406 367.558594 L 882.226562 367.558594 L 882.226562 366.226562 L 1359.191406 366.226562 L 1359.191406 367.558594 " fill-opacity="1" fill-rule="nonzero"/></g><g clip-path="url(#d9b0a5454c)"><path fill="#2e2e2e" d="M 1359.191406 330.867188 L 882.226562 330.867188 L 882.226562 329.535156 L 1359.191406 329.535156 L 1359.191406 330.867188 " fill-opacity="1" fill-rule="nonzero"/></g><g clip-path="url(#61a0c8f7ac)"><path fill="#2e2e2e" d="M 1359.191406 294.183594 L 882.226562 294.183594 L 882.226562 292.851562 L 1359.191406 292.851562 L 1359.191406 294.183594 " fill-opacity="1" fill-rule="nonzero"/></g><g clip-path="url(#bf7c6a1d3f)"><path fill="#2e2e2e" d="M 1359.191406 257.492188 L 882.226562 257.492188 L 882.226562 256.160156 L 1359.191406 256.160156 L 1359.191406 257.492188 " fill-opacity="1" fill-rule="nonzero"/></g><g clip-path="url(#7cd4d36854)"><path fill="#2e2e2e" d="M 1359.191406 220.804688 L 882.226562 220.804688 L 882.226562 219.46875 L 1359.191406 219.46875 L 1359.191406 220.804688 " fill-opacity="1" fill-rule="nonzero"/></g><g clip-path="url(#c830b44dc3)"><path fill="#2e2e2e" d="M 1359.191406 184.113281 L 882.226562 184.113281 L 882.226562 182.78125 L 1359.191406 182.78125 L 1359.191406 184.113281 " fill-opacity="1" fill-rule="nonzero"/></g><g clip-path="url(#4b0c804443)"><path fill="#2e2e2e" d="M 1359.191406 147.421875 L 882.226562 147.421875 L 882.226562 146.089844 L 1359.191406 146.089844 L 1359.191406 147.421875 " fill-opacity="1" fill-rule="nonzero"/></g><g clip-path="url(#a4138c79b1)"><path fill="#2e2e2e" d="M 1359.191406 110.738281 L 882.226562 110.738281 L 882.226562 109.402344 L 1359.191406 109.402344 L 1359.191406 110.738281 " fill-opacity="1" fill-rule="nonzero"/></g><g clip-path="url(#04405576d7)"><path fill="#2e2e2e" d="M 1359.191406 74.046875 L 882.226562 74.046875 L 882.226562 72.714844 L 1359.191406 72.714844 L 1359.191406 74.046875 " fill-opacity="1" fill-rule="nonzero"/></g><g clip-path="url(#91bd2785b1)"><path fill="#2e2e2e" d="M 1359.191406 37.355469 L 882.226562 37.355469 L 882.226562 36.023438 L 1359.191406 36.023438 L 1359.191406 37.355469 " fill-opacity="1" fill-rule="nonzero"/></g><g clip-path="url(#74d12ed80b)"><path fill="#2e2e2e" d="M 1363.332031 476.964844 L 1361.996094 476.964844 L 1361.996094 0 L 1363.332031 0 L 1363.332031 476.964844 " fill-opacity="1" fill-rule="nonzero"/></g><g clip-path="url(#315c76b7cb)"><path fill="#2e2e2e" d="M 1400.019531 476.964844 L 1398.6875 476.964844 L 1398.6875 0 L 1400.019531 0 L 1400.019531 476.964844 " fill-opacity="1" fill-rule="nonzero"/></g><g clip-path="url(#0b273f021f)"><path fill="#2e2e2e" d="M 1436.707031 476.964844 L 1435.378906 476.964844 L 1435.378906 0 L 1436.707031 0 L 1436.707031 476.964844 " fill-opacity="1" fill-rule="nonzero"/></g><g clip-path="url(#01a70ea615)"><path fill="#2e2e2e" d="M 1802.9375 440.941406 L 1325.972656 440.941406 L 1325.972656 439.605469 L 1802.9375 439.605469 L 1802.9375 440.941406 " fill-opacity="1" fill-rule="nonzero"/></g><g clip-path="url(#b11e9475df)"><path fill="#2e2e2e" d="M 1802.9375 404.25 L 1325.972656 404.25 L 1325.972656 402.917969 L 1802.9375 402.917969 L 1802.9375 404.25 " fill-opacity="1" fill-rule="nonzero"/></g><g clip-path="url(#79a4ea1b75)"><path fill="#2e2e2e" d="M 1802.9375 367.558594 L 1325.972656 367.558594 L 1325.972656 366.226562 L 1802.9375 366.226562 L 1802.9375 367.558594 " fill-opacity="1" fill-rule="nonzero"/></g><g clip-path="url(#2ea6259903)"><path fill="#2e2e2e" d="M 1802.9375 330.867188 L 1325.972656 330.867188 L 1325.972656 329.535156 L 1802.9375 329.535156 L 1802.9375 330.867188 " fill-opacity="1" fill-rule="nonzero"/></g><g clip-path="url(#820e815c62)"><path fill="#2e2e2e" d="M 1802.9375 294.183594 L 1325.972656 294.183594 L 1325.972656 292.851562 L 1802.9375 292.851562 L 1802.9375 294.183594 " fill-opacity="1" fill-rule="nonzero"/></g><g clip-path="url(#d0dad2e53f)"><path fill="#2e2e2e" d="M 1802.9375 257.492188 L 1325.972656 257.492188 L 1325.972656 256.160156 L 1802.9375 256.160156 L 1802.9375 257.492188 " fill-opacity="1" fill-rule="nonzero"/></g><g clip-path="url(#06226bce9c)"><path fill="#2e2e2e" d="M 1802.9375 220.804688 L 1325.972656 220.804688 L 1325.972656 219.46875 L 1802.9375 219.46875 L 1802.9375 220.804688 " fill-opacity="1" fill-rule="nonzero"/></g><g clip-path="url(#4246435da8)"><path fill="#2e2e2e" d="M 1802.9375 184.113281 L 1325.972656 184.113281 L 1325.972656 182.78125 L 1802.9375 182.78125 L 1802.9375 184.113281 " fill-opacity="1" fill-rule="nonzero"/></g><g clip-path="url(#6352239673)"><path fill="#2e2e2e" d="M 1802.9375 147.421875 L 1325.972656 147.421875 L 1325.972656 146.089844 L 1802.9375 146.089844 L 1802.9375 147.421875 " fill-opacity="1" fill-rule="nonzero"/></g><g clip-path="url(#251276f4a1)"><path fill="#2e2e2e" d="M 1802.9375 110.738281 L 1325.972656 110.738281 L 1325.972656 109.402344 L 1802.9375 109.402344 L 1802.9375 110.738281 " fill-opacity="1" fill-rule="nonzero"/></g><g clip-path="url(#148d5f4a8c)"><path fill="#2e2e2e" d="M 1802.9375 74.046875 L 1325.972656 74.046875 L 1325.972656 72.714844 L 1802.9375 72.714844 L 1802.9375 74.046875 " fill-opacity="1" fill-rule="nonzero"/></g><g clip-path="url(#2f0edbce44)"><path fill="#2e2e2e" d="M 1802.9375 37.355469 L 1325.972656 37.355469 L 1325.972656 36.023438 L 1802.9375 36.023438 L 1802.9375 37.355469 " fill-opacity="1" fill-rule="nonzero"/></g><g clip-path="url(#b2929c964c)"><path fill="#2e2e2e" d="M 37.355469 918.488281 L 36.023438 918.488281 L 36.023438 441.523438 L 37.355469 441.523438 L 37.355469 918.488281 " fill-opacity="1" fill-rule="nonzero"/></g><g clip-path="url(#8e1eedc0a1)"><path fill="#2e2e2e" d="M 74.046875 918.488281 L 72.714844 918.488281 L 72.714844 441.523438 L 74.046875 441.523438 L 74.046875 918.488281 " fill-opacity="1" fill-rule="nonzero"/></g><g clip-path="url(#bb2fa11707)"><path fill="#2e2e2e" d="M 110.730469 918.488281 L 109.402344 918.488281 L 109.402344 441.523438 L 110.730469 441.523438 L 110.730469 918.488281 " fill-opacity="1" fill-rule="nonzero"/></g><g clip-path="url(#91a3a86a32)"><path fill="#2e2e2e" d="M 147.421875 918.488281 L 146.089844 918.488281 L 146.089844 441.523438 L 147.421875 441.523438 L 147.421875 918.488281 " fill-opacity="1" fill-rule="nonzero"/></g><g clip-path="url(#454e3f739b)"><path fill="#2e2e2e" d="M 184.113281 918.488281 L 182.78125 918.488281 L 182.78125 441.523438 L 184.113281 441.523438 L 184.113281 918.488281 " fill-opacity="1" fill-rule="nonzero"/></g><g clip-path="url(#08b97e9cca)"><path fill="#2e2e2e" d="M 220.804688 918.488281 L 219.46875 918.488281 L 219.46875 441.523438 L 220.804688 441.523438 L 220.804688 918.488281 " fill-opacity="1" fill-rule="nonzero"/></g><g clip-path="url(#20526fffcf)"><path fill="#2e2e2e" d="M 257.492188 918.488281 L 256.160156 918.488281 L 256.160156 441.523438 L 257.492188 441.523438 L 257.492188 918.488281 " fill-opacity="1" fill-rule="nonzero"/></g><g clip-path="url(#447624649c)"><path fill="#2e2e2e" d="M 294.183594 918.488281 L 292.851562 918.488281 L 292.851562 441.523438 L 294.183594 441.523438 L 294.183594 918.488281 " fill-opacity="1" fill-rule="nonzero"/></g><g clip-path="url(#f82796d161)"><path fill="#2e2e2e" d="M 330.867188 918.488281 L 329.535156 918.488281 L 329.535156 441.523438 L 330.867188 441.523438 L 330.867188 918.488281 " fill-opacity="1" fill-rule="nonzero"/></g><g clip-path="url(#fcc8e6ff15)"><path fill="#2e2e2e" d="M 367.558594 918.488281 L 366.226562 918.488281 L 366.226562 441.523438 L 367.558594 441.523438 L 367.558594 918.488281 " fill-opacity="1" fill-rule="nonzero"/></g><g clip-path="url(#1a81121620)"><path fill="#2e2e2e" d="M 404.25 918.488281 L 402.917969 918.488281 L 402.917969 441.523438 L 404.25 441.523438 L 404.25 918.488281 " fill-opacity="1" fill-rule="nonzero"/></g><g clip-path="url(#dcb05e97cc)"><path fill="#2e2e2e" d="M 440.941406 918.488281 L 439.605469 918.488281 L 439.605469 441.523438 L 440.941406 441.523438 L 440.941406 918.488281 " fill-opacity="1" fill-rule="nonzero"/></g><g clip-path="url(#880e493231)"><path fill="#2e2e2e" d="M 476.964844 809.082031 L 0 809.082031 L 0 807.75 L 476.964844 807.75 L 476.964844 809.082031 " fill-opacity="1" fill-rule="nonzero"/></g><g clip-path="url(#68ebdb3abd)"><path fill="#2e2e2e" d="M 476.964844 772.390625 L 0 772.390625 L 0 771.058594 L 476.964844 771.058594 L 476.964844 772.390625 " fill-opacity="1" fill-rule="nonzero"/></g><g clip-path="url(#c7f215c846)"><path fill="#2e2e2e" d="M 476.964844 735.707031 L 0 735.707031 L 0 734.375 L 476.964844 734.375 L 476.964844 735.707031 " fill-opacity="1" fill-rule="nonzero"/></g><g clip-path="url(#8b263f6ad6)"><path fill="#2e2e2e" d="M 476.964844 699.015625 L 0 699.015625 L 0 697.683594 L 476.964844 697.683594 L 476.964844 699.015625 " fill-opacity="1" fill-rule="nonzero"/></g><g clip-path="url(#79bf2201cf)"><path fill="#2e2e2e" d="M 476.964844 662.328125 L 0 662.328125 L 0 660.992188 L 476.964844 660.992188 L 476.964844 662.328125 " fill-opacity="1" fill-rule="nonzero"/></g><g clip-path="url(#b4255b6b19)"><path fill="#2e2e2e" d="M 476.964844 625.636719 L 0 625.636719 L 0 624.304688 L 476.964844 624.304688 L 476.964844 625.636719 " fill-opacity="1" fill-rule="nonzero"/></g><g clip-path="url(#bb012523cf)"><path fill="#2e2e2e" d="M 476.964844 588.945312 L 0 588.945312 L 0 587.613281 L 476.964844 587.613281 L 476.964844 588.945312 " fill-opacity="1" fill-rule="nonzero"/></g><g clip-path="url(#8ec717b570)"><path fill="#2e2e2e" d="M 476.964844 552.261719 L 0 552.261719 L 0 550.929688 L 476.964844 550.929688 L 476.964844 552.261719 " fill-opacity="1" fill-rule="nonzero"/></g><g clip-path="url(#a9643c8063)"><path fill="#2e2e2e" d="M 476.964844 515.570312 L 0 515.570312 L 0 514.238281 L 476.964844 514.238281 L 476.964844 515.570312 " fill-opacity="1" fill-rule="nonzero"/></g><g clip-path="url(#56caf27584)"><path fill="#2e2e2e" d="M 476.964844 478.878906 L 0 478.878906 L 0 477.546875 L 476.964844 477.546875 L 476.964844 478.878906 " fill-opacity="1" fill-rule="nonzero"/></g><g clip-path="url(#bae774dc6a)"><path fill="#2e2e2e" d="M 477.179688 918.488281 L 475.847656 918.488281 L 475.847656 441.523438 L 477.179688 441.523438 L 477.179688 918.488281 " fill-opacity="1" fill-rule="nonzero"/></g><g clip-path="url(#968d1db824)"><path fill="#2e2e2e" d="M 513.871094 918.488281 L 512.539062 918.488281 L 512.539062 441.523438 L 513.871094 441.523438 L 513.871094 918.488281 " fill-opacity="1" fill-rule="nonzero"/></g><g clip-path="url(#127ca45229)"><path fill="#2e2e2e" d="M 550.558594 918.488281 L 549.230469 918.488281 L 549.230469 441.523438 L 550.558594 441.523438 L 550.558594 918.488281 " fill-opacity="1" fill-rule="nonzero"/></g><g clip-path="url(#452e473b34)"><path fill="#2e2e2e" d="M 587.246094 918.488281 L 585.914062 918.488281 L 585.914062 441.523438 L 587.246094 441.523438 L 587.246094 918.488281 " fill-opacity="1" fill-rule="nonzero"/></g><g clip-path="url(#090095001b)"><path fill="#2e2e2e" d="M 623.9375 918.488281 L 622.605469 918.488281 L 622.605469 441.523438 L 623.9375 441.523438 L 623.9375 918.488281 " fill-opacity="1" fill-rule="nonzero"/></g><g clip-path="url(#b95871665b)"><path fill="#2e2e2e" d="M 660.628906 918.488281 L 659.292969 918.488281 L 659.292969 441.523438 L 660.628906 441.523438 L 660.628906 918.488281 " fill-opacity="1" fill-rule="nonzero"/></g><g clip-path="url(#d1cf776890)"><path fill="#2e2e2e" d="M 697.316406 918.488281 L 695.984375 918.488281 L 695.984375 441.523438 L 697.316406 441.523438 L 697.316406 918.488281 " fill-opacity="1" fill-rule="nonzero"/></g><g clip-path="url(#7c8b959586)"><path fill="#2e2e2e" d="M 734.007812 918.488281 L 732.675781 918.488281 L 732.675781 441.523438 L 734.007812 441.523438 L 734.007812 918.488281 " fill-opacity="1" fill-rule="nonzero"/></g><g clip-path="url(#af0de3ce94)"><path fill="#2e2e2e" d="M 770.695312 918.488281 L 769.359375 918.488281 L 769.359375 441.523438 L 770.695312 441.523438 L 770.695312 918.488281 " fill-opacity="1" fill-rule="nonzero"/></g><g clip-path="url(#f4a64a5cf9)"><path fill="#2e2e2e" d="M 807.382812 918.488281 L 806.050781 918.488281 L 806.050781 441.523438 L 807.382812 441.523438 L 807.382812 918.488281 " fill-opacity="1" fill-rule="nonzero"/></g><g clip-path="url(#ba34ee590b)"><path fill="#2e2e2e" d="M 844.074219 918.488281 L 842.742188 918.488281 L 842.742188 441.523438 L 844.074219 441.523438 L 844.074219 918.488281 " fill-opacity="1" fill-rule="nonzero"/></g><g clip-path="url(#24370e32fa)"><path fill="#2e2e2e" d="M 880.765625 918.488281 L 879.429688 918.488281 L 879.429688 441.523438 L 880.765625 441.523438 L 880.765625 918.488281 " fill-opacity="1" fill-rule="nonzero"/></g><g clip-path="url(#fe197e6469)"><path fill="#2e2e2e" d="M 916.789062 809.082031 L 439.824219 809.082031 L 439.824219 807.75 L 916.789062 807.75 L 916.789062 809.082031 " fill-opacity="1" fill-rule="nonzero"/></g><g clip-path="url(#9886551389)"><path fill="#2e2e2e" d="M 916.789062 772.390625 L 439.824219 772.390625 L 439.824219 771.058594 L 916.789062 771.058594 L 916.789062 772.390625 " fill-opacity="1" fill-rule="nonzero"/></g><g clip-path="url(#4ae8f032c2)"><path fill="#2e2e2e" d="M 916.789062 735.707031 L 439.824219 735.707031 L 439.824219 734.375 L 916.789062 734.375 L 916.789062 735.707031 " fill-opacity="1" fill-rule="nonzero"/></g><g clip-path="url(#c82cb2d678)"><path fill="#2e2e2e" d="M 916.789062 699.015625 L 439.824219 699.015625 L 439.824219 697.683594 L 916.789062 697.683594 L 916.789062 699.015625 " fill-opacity="1" fill-rule="nonzero"/></g><g clip-path="url(#0fd996533a)"><path fill="#2e2e2e" d="M 916.789062 662.328125 L 439.824219 662.328125 L 439.824219 660.992188 L 916.789062 660.992188 L 916.789062 662.328125 " fill-opacity="1" fill-rule="nonzero"/></g><g clip-path="url(#839db572e0)"><path fill="#2e2e2e" d="M 916.789062 625.636719 L 439.824219 625.636719 L 439.824219 624.304688 L 916.789062 624.304688 L 916.789062 625.636719 " fill-opacity="1" fill-rule="nonzero"/></g><g clip-path="url(#5322b3e86d)"><path fill="#2e2e2e" d="M 916.789062 588.945312 L 439.824219 588.945312 L 439.824219 587.613281 L 916.789062 587.613281 L 916.789062 588.945312 " fill-opacity="1" fill-rule="nonzero"/></g><g clip-path="url(#74ef767a7f)"><path fill="#2e2e2e" d="M 916.789062 552.261719 L 439.824219 552.261719 L 439.824219 550.929688 L 916.789062 550.929688 L 916.789062 552.261719 " fill-opacity="1" fill-rule="nonzero"/></g><g clip-path="url(#9b905feb2b)"><path fill="#2e2e2e" d="M 916.789062 515.570312 L 439.824219 515.570312 L 439.824219 514.238281 L 916.789062 514.238281 L 916.789062 515.570312 " fill-opacity="1" fill-rule="nonzero"/></g><g clip-path="url(#4247a70574)"><path fill="#2e2e2e" d="M 916.789062 478.878906 L 439.824219 478.878906 L 439.824219 477.546875 L 916.789062 477.546875 L 916.789062 478.878906 " fill-opacity="1" fill-rule="nonzero"/></g><g clip-path="url(#d1dcbf9294)"><path fill="#2e2e2e" d="M 1907.285156 809.082031 L 1430.320312 809.082031 L 1430.320312 807.75 L 1907.285156 807.75 L 1907.285156 809.082031 " fill-opacity="1" fill-rule="nonzero"/></g><g clip-path="url(#093e077016)"><path fill="#2e2e2e" d="M 1907.285156 772.390625 L 1430.320312 772.390625 L 1430.320312 771.058594 L 1907.285156 771.058594 L 1907.285156 772.390625 " fill-opacity="1" fill-rule="nonzero"/></g><g clip-path="url(#5352f67a23)"><path fill="#2e2e2e" d="M 1907.285156 735.707031 L 1430.320312 735.707031 L 1430.320312 734.375 L 1907.285156 734.375 L 1907.285156 735.707031 " fill-opacity="1" fill-rule="nonzero"/></g><g clip-path="url(#fce04b512d)"><path fill="#2e2e2e" d="M 1907.285156 699.015625 L 1430.320312 699.015625 L 1430.320312 697.683594 L 1907.285156 697.683594 L 1907.285156 699.015625 " fill-opacity="1" fill-rule="nonzero"/></g><g clip-path="url(#080d56f9a6)"><path fill="#2e2e2e" d="M 1907.285156 662.328125 L 1430.320312 662.328125 L 1430.320312 660.992188 L 1907.285156 660.992188 L 1907.285156 662.328125 " fill-opacity="1" fill-rule="nonzero"/></g><g clip-path="url(#7409b3a1d0)"><path fill="#2e2e2e" d="M 1907.285156 625.636719 L 1430.320312 625.636719 L 1430.320312 624.304688 L 1907.285156 624.304688 L 1907.285156 625.636719 " fill-opacity="1" fill-rule="nonzero"/></g><g clip-path="url(#fe869fa6d9)"><path fill="#2e2e2e" d="M 1907.285156 588.945312 L 1430.320312 588.945312 L 1430.320312 587.613281 L 1907.285156 587.613281 L 1907.285156 588.945312 " fill-opacity="1" fill-rule="nonzero"/></g><g clip-path="url(#af30770f28)"><path fill="#2e2e2e" d="M 1907.285156 552.261719 L 1430.320312 552.261719 L 1430.320312 550.929688 L 1907.285156 550.929688 L 1907.285156 552.261719 " fill-opacity="1" fill-rule="nonzero"/></g><g clip-path="url(#75fd20cb14)"><path fill="#2e2e2e" d="M 1907.285156 515.570312 L 1430.320312 515.570312 L 1430.320312 514.238281 L 1907.285156 514.238281 L 1907.285156 515.570312 " fill-opacity="1" fill-rule="nonzero"/></g><g clip-path="url(#738403fadd)"><path fill="#2e2e2e" d="M 1907.285156 478.878906 L 1430.320312 478.878906 L 1430.320312 477.546875 L 1907.285156 477.546875 L 1907.285156 478.878906 " fill-opacity="1" fill-rule="nonzero"/></g><g clip-path="url(#804836205c)"><path fill="#2e2e2e" d="M 919.582031 918.488281 L 918.25 918.488281 L 918.25 441.523438 L 919.582031 441.523438 L 919.582031 918.488281 " fill-opacity="1" fill-rule="nonzero"/></g><g clip-path="url(#7b4003e4ed)"><path fill="#2e2e2e" d="M 956.273438 918.488281 L 954.941406 918.488281 L 954.941406 441.523438 L 956.273438 441.523438 L 956.273438 918.488281 " fill-opacity="1" fill-rule="nonzero"/></g><g clip-path="url(#49549f228f)"><path fill="#2e2e2e" d="M 992.957031 918.488281 L 991.628906 918.488281 L 991.628906 441.523438 L 992.957031 441.523438 L 992.957031 918.488281 " fill-opacity="1" fill-rule="nonzero"/></g><g clip-path="url(#cd8751ce7d)"><path fill="#2e2e2e" d="M 1029.648438 918.488281 L 1028.316406 918.488281 L 1028.316406 441.523438 L 1029.648438 441.523438 L 1029.648438 918.488281 " fill-opacity="1" fill-rule="nonzero"/></g><g clip-path="url(#b2e9bad9e8)"><path fill="#2e2e2e" d="M 1066.339844 918.488281 L 1065.007812 918.488281 L 1065.007812 441.523438 L 1066.339844 441.523438 L 1066.339844 918.488281 " fill-opacity="1" fill-rule="nonzero"/></g><g clip-path="url(#1a71f29808)"><path fill="#2e2e2e" d="M 1103.03125 918.488281 L 1101.695312 918.488281 L 1101.695312 441.523438 L 1103.03125 441.523438 L 1103.03125 918.488281 " fill-opacity="1" fill-rule="nonzero"/></g><g clip-path="url(#6ce4970722)"><path fill="#2e2e2e" d="M 1139.71875 918.488281 L 1138.386719 918.488281 L 1138.386719 441.523438 L 1139.71875 441.523438 L 1139.71875 918.488281 " fill-opacity="1" fill-rule="nonzero"/></g><g clip-path="url(#0fc0040dd7)"><path fill="#2e2e2e" d="M 1176.410156 918.488281 L 1175.078125 918.488281 L 1175.078125 441.523438 L 1176.410156 441.523438 L 1176.410156 918.488281 " fill-opacity="1" fill-rule="nonzero"/></g><g clip-path="url(#7f1412b1fe)"><path fill="#2e2e2e" d="M 1213.09375 918.488281 L 1211.761719 918.488281 L 1211.761719 441.523438 L 1213.09375 441.523438 L 1213.09375 918.488281 " fill-opacity="1" fill-rule="nonzero"/></g><g clip-path="url(#d1f6d76dc5)"><path fill="#2e2e2e" d="M 1249.785156 918.488281 L 1248.453125 918.488281 L 1248.453125 441.523438 L 1249.785156 441.523438 L 1249.785156 918.488281 " fill-opacity="1" fill-rule="nonzero"/></g><g clip-path="url(#7b2d6d596e)"><path fill="#2e2e2e" d="M 1286.476562 918.488281 L 1285.144531 918.488281 L 1285.144531 441.523438 L 1286.476562 441.523438 L 1286.476562 918.488281 " fill-opacity="1" fill-rule="nonzero"/></g><g clip-path="url(#0374f0ab54)"><path fill="#2e2e2e" d="M 1323.167969 918.488281 L 1321.832031 918.488281 L 1321.832031 441.523438 L 1323.167969 441.523438 L 1323.167969 918.488281 " fill-opacity="1" fill-rule="nonzero"/></g><g clip-path="url(#427681f0fa)"><path fill="#2e2e2e" d="M 1359.191406 809.082031 L 882.226562 809.082031 L 882.226562 807.75 L 1359.191406 807.75 L 1359.191406 809.082031 " fill-opacity="1" fill-rule="nonzero"/></g><g clip-path="url(#c9933948e1)"><path fill="#2e2e2e" d="M 1359.191406 772.390625 L 882.226562 772.390625 L 882.226562 771.058594 L 1359.191406 771.058594 L 1359.191406 772.390625 " fill-opacity="1" fill-rule="nonzero"/></g><g clip-path="url(#136bcf8223)"><path fill="#2e2e2e" d="M 1359.191406 735.707031 L 882.226562 735.707031 L 882.226562 734.375 L 1359.191406 734.375 L 1359.191406 735.707031 " fill-opacity="1" fill-rule="nonzero"/></g><g clip-path="url(#08f78164e3)"><path fill="#2e2e2e" d="M 1359.191406 699.015625 L 882.226562 699.015625 L 882.226562 697.683594 L 1359.191406 697.683594 L 1359.191406 699.015625 " fill-opacity="1" fill-rule="nonzero"/></g><g clip-path="url(#305eb63254)"><path fill="#2e2e2e" d="M 1359.191406 662.328125 L 882.226562 662.328125 L 882.226562 660.992188 L 1359.191406 660.992188 L 1359.191406 662.328125 " fill-opacity="1" fill-rule="nonzero"/></g><g clip-path="url(#0f8b1c8fda)"><path fill="#2e2e2e" d="M 1359.191406 625.636719 L 882.226562 625.636719 L 882.226562 624.304688 L 1359.191406 624.304688 L 1359.191406 625.636719 " fill-opacity="1" fill-rule="nonzero"/></g><g clip-path="url(#14f343c37b)"><path fill="#2e2e2e" d="M 1359.191406 588.945312 L 882.226562 588.945312 L 882.226562 587.613281 L 1359.191406 587.613281 L 1359.191406 588.945312 " fill-opacity="1" fill-rule="nonzero"/></g><g clip-path="url(#d411e42858)"><path fill="#2e2e2e" d="M 1359.191406 552.261719 L 882.226562 552.261719 L 882.226562 550.929688 L 1359.191406 550.929688 L 1359.191406 552.261719 " fill-opacity="1" fill-rule="nonzero"/></g><g clip-path="url(#21d5132c78)"><path fill="#2e2e2e" d="M 1359.191406 515.570312 L 882.226562 515.570312 L 882.226562 514.238281 L 1359.191406 514.238281 L 1359.191406 515.570312 " fill-opacity="1" fill-rule="nonzero"/></g><g clip-path="url(#5ecfc53685)"><path fill="#2e2e2e" d="M 1359.191406 478.878906 L 882.226562 478.878906 L 882.226562 477.546875 L 1359.191406 477.546875 L 1359.191406 478.878906 " fill-opacity="1" fill-rule="nonzero"/></g><g clip-path="url(#66c724eb1f)"><path fill="#2e2e2e" d="M 1363.332031 918.488281 L 1361.996094 918.488281 L 1361.996094 441.523438 L 1363.332031 441.523438 L 1363.332031 918.488281 " fill-opacity="1" fill-rule="nonzero"/></g><g clip-path="url(#e44444a8ae)"><path fill="#2e2e2e" d="M 1400.019531 918.488281 L 1398.6875 918.488281 L 1398.6875 441.523438 L 1400.019531 441.523438 L 1400.019531 918.488281 " fill-opacity="1" fill-rule="nonzero"/></g><g clip-path="url(#d2ea131930)"><path fill="#2e2e2e" d="M 1436.707031 918.488281 L 1435.378906 918.488281 L 1435.378906 441.523438 L 1436.707031 441.523438 L 1436.707031 918.488281 " fill-opacity="1" fill-rule="nonzero"/></g><g clip-path="url(#57ca328ba7)"><path fill="#2e2e2e" d="M 1802.9375 809.082031 L 1325.972656 809.082031 L 1325.972656 807.75 L 1802.9375 807.75 L 1802.9375 809.082031 " fill-opacity="1" fill-rule="nonzero"/></g><g clip-path="url(#575bafeba9)"><path fill="#2e2e2e" d="M 1802.9375 772.390625 L 1325.972656 772.390625 L 1325.972656 771.058594 L 1802.9375 771.058594 L 1802.9375 772.390625 " fill-opacity="1" fill-rule="nonzero"/></g><g clip-path="url(#aba6634f64)"><path fill="#2e2e2e" d="M 1802.9375 735.707031 L 1325.972656 735.707031 L 1325.972656 734.375 L 1802.9375 734.375 L 1802.9375 735.707031 " fill-opacity="1" fill-rule="nonzero"/></g><g clip-path="url(#286c2847a5)"><path fill="#2e2e2e" d="M 1802.9375 699.015625 L 1325.972656 699.015625 L 1325.972656 697.683594 L 1802.9375 697.683594 L 1802.9375 699.015625 " fill-opacity="1" fill-rule="nonzero"/></g><g clip-path="url(#a19cec2448)"><path fill="#2e2e2e" d="M 1802.9375 662.328125 L 1325.972656 662.328125 L 1325.972656 660.992188 L 1802.9375 660.992188 L 1802.9375 662.328125 " fill-opacity="1" fill-rule="nonzero"/></g><g clip-path="url(#742a1bb6c8)"><path fill="#2e2e2e" d="M 1802.9375 625.636719 L 1325.972656 625.636719 L 1325.972656 624.304688 L 1802.9375 624.304688 L 1802.9375 625.636719 " fill-opacity="1" fill-rule="nonzero"/></g><g clip-path="url(#f423d32722)"><path fill="#2e2e2e" d="M 1802.9375 588.945312 L 1325.972656 588.945312 L 1325.972656 587.613281 L 1802.9375 587.613281 L 1802.9375 588.945312 " fill-opacity="1" fill-rule="nonzero"/></g><g clip-path="url(#286020b0b6)"><path fill="#2e2e2e" d="M 1802.9375 552.261719 L 1325.972656 552.261719 L 1325.972656 550.929688 L 1802.9375 550.929688 L 1802.9375 552.261719 " fill-opacity="1" fill-rule="nonzero"/></g><g clip-path="url(#b70380f73b)"><path fill="#2e2e2e" d="M 1802.9375 515.570312 L 1325.972656 515.570312 L 1325.972656 514.238281 L 1802.9375 514.238281 L 1802.9375 515.570312 " fill-opacity="1" fill-rule="nonzero"/></g><g clip-path="url(#583be1dd81)"><path fill="#2e2e2e" d="M 1802.9375 478.878906 L 1325.972656 478.878906 L 1325.972656 477.546875 L 1802.9375 477.546875 L 1802.9375 478.878906 " fill-opacity="1" fill-rule="nonzero"/></g></svg>